<svg width="23" height="25" viewBox="0 0 23 25" fill="none" xmlns="http://www.w3.org/2000/svg">
<path d="M11.5 0C7.69961 0 4.6 3.06285 4.6 6.81818C4.6 10.5735 7.69961 13.6364 11.5 13.6364C15.3004 13.6364 18.4 10.5735 18.4 6.81818C18.4 3.06285 15.3004 0 11.5 0ZM11.5 13.6364C5.16602 13.6364 0 18.7411 0 25H2.3C2.3 19.9663 6.40586 15.9091 11.5 15.9091C16.5941 15.9091 20.7 19.9663 20.7 25H23C23 18.7411 17.834 13.6364 11.5 13.6364ZM11.5 2.27273C14.0516 2.27273 16.1 4.29687 16.1 6.81818C16.1 9.33949 14.0516 11.3636 11.5 11.3636C8.94844 11.3636 6.9 9.33949 6.9 6.81818C6.9 4.29687 8.94844 2.27273 11.5 2.27273Z" fill="#D8623C"/>
</svg>
