<svg width="27" height="25" viewBox="0 0 27 25" fill="none" xmlns="http://www.w3.org/2000/svg">
<path d="M5.52204 0C2.47851 0 0 2.5015 0 5.55138V21.1538H13.5V25H15.4286V21.1538H27V5.55138C27.0075 2.5015 24.5215 0 21.4779 0H5.52204ZM5.52204 1.92308H6.04938C8.04575 1.92308 9.64285 3.53065 9.64285 5.55138V19.2308H1.92857V5.54387C1.9361 3.53065 3.5332 1.92308 5.52204 1.92308ZM10.1853 1.92308H21.4779C23.4668 1.92308 25.0714 3.53065 25.0714 5.55138V19.2308H11.5714V5.55138C11.5714 4.16166 11.0365 2.89964 10.1853 1.92308ZM13.5 5.76923V7.69231H21.2143V9.61538H23.1428V5.76923H13.5ZM3.85714 7.69231V9.61538H7.71428V7.69231H3.85714Z" fill="#D8623C"/>
</svg>
