<svg width="24" height="24" viewBox="0 0 24 24" fill="none" xmlns="http://www.w3.org/2000/svg">
<path d="M22.6752 2.71477e-08H1.32363C0.592529 0.000439482 -0.000146457 0.593408 2.71477e-08 1.3248V22.6764C0.000439482 23.4075 0.593408 24.0001 1.3248 24H12.8203V14.7188H9.70313V11.0859H12.8203V8.41245C12.8203 5.31211 14.713 3.62461 17.4787 3.62461C18.8033 3.62461 19.9417 3.72334 20.2734 3.76743V7.00781H18.3664C16.8617 7.00781 16.5703 7.7228 16.5703 8.77222V11.0859H20.168L19.6992 14.7188H16.5703V24H22.6752C23.4067 24.0001 23.9999 23.4073 24 22.6758C24 22.6756 24 22.6755 24 22.6752V1.32363C23.9997 0.592529 23.4066 -0.000146457 22.6752 2.71477e-08Z" fill="#D8623C"/>
</svg>
