<svg width="29" height="25" viewBox="0 0 29 25" fill="none" xmlns="http://www.w3.org/2000/svg">
<path d="M25.6868 13.6707V24.3336H17.1419V15.1417V14.4754H16.4755H12.5245H11.8581V15.1417V24.3336H3.31324V13.6707V12.1441L2.19383 13.182L1.37828 13.9382L0.941946 13.4677L14.5 0.908325L28.0581 13.4677L27.6217 13.9382L26.8062 13.182L25.6868 12.1441V13.6707ZM14.9532 2.19175L14.5 1.7712L14.0468 2.19175L4.16917 11.3569L3.95605 11.5546V11.8453V23.0283V23.6947H4.62241H10.549H11.2153V23.0283V13.8364H17.7847V23.0283V23.6947H18.451H24.3776H25.044V23.0283V11.8453V11.5546L24.8308 11.3569L14.9532 2.19175Z" fill="#D8623C" stroke="#D8623C" stroke-width="1.33271"/>
</svg>
