<svg width="26" height="26" viewBox="0 0 26 26" fill="none" xmlns="http://www.w3.org/2000/svg">
<path d="M25.9339 7.64409C25.873 6.26261 25.6496 5.31285 25.3295 4.48987C24.9993 3.6163 24.4912 2.8342 23.8257 2.18403C23.1754 1.52374 22.388 1.01067 21.5244 0.685683C20.6965 0.365658 19.7515 0.142255 18.3697 0.0813455C16.9777 0.0152771 16.5357 0 13.0051 0C9.47439 0 9.03246 0.0152771 7.64555 0.076187C6.26381 0.137097 5.31387 0.360698 4.49093 0.680524C3.61699 1.01067 2.83474 1.51858 2.18444 2.18403C1.52403 2.8342 1.01106 3.62146 0.685814 4.48491C0.365728 5.31285 0.142283 6.25745 0.081361 7.63894C0.01528 9.03074 0 9.47258 0 13.0026C0 16.5326 0.01528 16.9744 0.0762015 18.3611C0.137123 19.7425 0.360767 20.6923 0.680853 21.5153C1.01106 22.3889 1.52403 23.171 2.18444 23.8211C2.83474 24.4814 3.62215 24.9945 4.48577 25.3195C5.31387 25.6395 6.25865 25.8629 7.64059 25.9238C9.0273 25.9849 9.46943 26 13.0001 26C16.5308 26 16.9727 25.9849 18.3596 25.9238C19.7414 25.8629 20.6913 25.6395 21.5142 25.3195C23.2619 24.6439 24.6437 23.2624 25.3193 21.5153C25.6392 20.6873 25.8629 19.7425 25.9238 18.3611C25.9847 16.9744 26 16.5326 26 13.0026C26 9.47258 25.9948 9.03074 25.9339 7.64409ZM23.5921 18.2595C23.5362 19.5293 23.3228 20.2149 23.145 20.6721C22.7081 21.8048 21.8089 22.7037 20.676 23.1406C20.2188 23.3184 19.528 23.5317 18.263 23.5874C16.8913 23.6485 16.48 23.6636 13.0102 23.6636C9.54047 23.6636 9.12394 23.6485 7.75728 23.5874C6.48725 23.5317 5.80144 23.3184 5.34423 23.1406C4.78045 22.9323 4.26729 22.6021 3.85076 22.1704C3.41895 21.7488 3.08874 21.2409 2.88038 20.6772C2.70257 20.2201 2.48925 19.5293 2.43349 18.2646C2.37237 16.8933 2.35729 16.4818 2.35729 13.0127C2.35729 9.54361 2.37237 9.12716 2.43349 7.76095C2.48925 6.49117 2.70257 5.80549 2.88038 5.34837C3.08874 4.7845 3.41895 4.27163 3.85592 3.85498C4.27741 3.42326 4.78542 3.09311 5.34939 2.88499C5.8066 2.70722 6.49757 2.49393 7.76243 2.43798C9.13406 2.37707 9.54563 2.3618 13.0152 2.3618C16.4901 2.3618 16.9015 2.37707 18.2681 2.43798C19.5382 2.49393 20.224 2.70722 20.6812 2.88499C21.2449 3.09311 21.7581 3.42326 22.1746 3.85498C22.6065 4.27659 22.9367 4.7845 23.145 5.34837C23.3228 5.80549 23.5362 6.49613 23.5921 7.76095C23.653 9.13232 23.6683 9.54361 23.6683 13.0127C23.6683 16.4818 23.653 16.8881 23.5921 18.2595Z" fill="#D8623C"/>
<path d="M13.0054 6.32336C9.31739 6.32336 6.3251 9.31485 6.3251 13.0023C6.3251 16.6898 9.31739 19.6813 13.0054 19.6813C16.6936 19.6813 19.6857 16.6898 19.6857 13.0023C19.6857 9.31485 16.6936 6.32336 13.0054 6.32336ZM13.0054 17.3348C10.6128 17.3348 8.67206 15.3946 8.67206 13.0023C8.67206 10.61 10.6128 8.66985 13.0054 8.66985C15.3982 8.66985 17.3388 10.61 17.3388 13.0023C17.3388 15.3946 15.3982 17.3348 13.0054 17.3348V17.3348Z" fill="#D8623C"/>
<path d="M21.5095 6.05912C21.5095 6.92025 20.8111 7.61848 19.9497 7.61848C19.0884 7.61848 18.3901 6.92025 18.3901 6.05912C18.3901 5.19779 19.0884 4.49976 19.9497 4.49976C20.8111 4.49976 21.5095 5.19779 21.5095 6.05912V6.05912Z" fill="#D8623C"/>
</svg>
