<svg width="32" height="32" viewBox="0 0 32 32" fill="none" xmlns="http://www.w3.org/2000/svg">
<path d="M17.5507 29.5285C20.4815 25.8596 27 16.9673 27 11.9725C27 5.91248 22.1737 1 16.22 1C10.2685 1 5.44 5.91248 5.44 11.9725C5.44 16.9673 12.0091 25.8596 14.8893 29.5285C15.5799 30.4029 16.8601 30.4029 17.5507 29.5285ZM16.22 15.63C14.2381 15.63 12.6267 13.9898 12.6267 11.9725C12.6267 9.95516 14.2381 8.315 16.22 8.315C18.2019 8.315 19.8133 9.95516 19.8133 11.9725C19.8133 13.9898 18.2019 15.63 16.22 15.63Z" fill="#D8623C"/>
</svg>
