<svg width="32" height="32" viewBox="0 0 32 32" fill="none" xmlns="http://www.w3.org/2000/svg">
<path d="M27.5169 5C29.0313 5 30.26 6.22812 30.26 7.74313C30.26 8.60607 29.8542 9.41757 29.1627 9.93762L16.7273 19.2643C16.0758 19.75 15.1842 19.75 14.5328 19.2643L2.09725 9.93762C1.4065 9.41757 1 8.60607 1 7.74313C1 6.22812 2.22812 5 3.74313 5H27.5169ZM13.4355 20.7273C14.7385 21.7045 16.5215 21.7045 17.8245 20.7273L30.26 11.4006V23.2875C30.26 25.3048 28.6198 26.945 26.6025 26.945H4.6575C2.6373 26.945 1 25.3048 1 23.2875V11.4006L13.4355 20.7273Z" fill="#D8623C"/>
</svg>
