<svg width="50" height="50" viewBox="0 0 50 50" fill="none" xmlns="http://www.w3.org/2000/svg">
<path fill-rule="evenodd" clip-rule="evenodd" d="M28.7419 27.9387C30.241 29.4378 32.6715 29.4378 34.1706 27.9387C35.6696 26.4396 35.6696 24.0092 34.1706 22.5101C32.6715 21.011 30.241 21.011 28.7419 22.5101C27.2428 24.0092 27.2428 26.4396 28.7419 27.9387ZM29.8919 26.7887C30.7559 27.6527 32.1566 27.6527 33.0206 26.7887C33.8846 25.9248 33.8846 24.524 33.0206 23.66C32.1566 22.796 30.7559 22.796 29.8919 23.66C29.0279 24.524 29.0279 25.9248 29.8919 26.7887Z" fill="#D8623C"/>
<path fill-rule="evenodd" clip-rule="evenodd" d="M42.3299 21.6804C43.5802 22.5538 44.6114 23.5113 45.2104 24.4971C45.3219 24.6788 45.3795 24.8883 45.3766 25.1015C45.3738 25.3124 45.3118 25.5183 45.1978 25.6956C44.5652 26.7025 43.5237 27.6716 42.2654 28.552C40.9953 29.4408 39.4586 30.2708 37.787 30.982C34.4525 32.4007 30.505 33.3784 26.9524 33.369C25.8456 33.3724 24.7404 33.2909 23.6465 33.1253C22.6999 34.1773 21.5701 35.1007 20.2548 35.6176C18.2082 36.419 16.1829 36.1959 14.5207 35.6622C12.862 35.1297 11.5098 34.2724 10.7467 33.7206C10.5661 33.5902 10.4179 33.4201 10.3135 33.2233C10.2092 33.0266 10.1514 32.8084 10.1448 32.5858C10.1382 32.3632 10.1829 32.142 10.2753 31.9394C10.3678 31.7368 10.5057 31.5581 10.6782 31.4173L10.6836 31.4129L14.5101 28.3433C14.4075 28.2238 14.307 28.1025 14.2086 27.9795C13.9014 27.6021 13.7346 27.1298 13.7368 26.6432L13.7368 26.6407V23.5035L13.7368 23.5009C13.7346 23.0146 13.9011 22.5427 14.2078 22.1654C14.3079 22.0403 14.4102 21.917 14.5147 21.7955L10.6847 18.7232L10.68 18.7195C10.5071 18.5786 10.3689 18.3999 10.2761 18.197C10.1834 17.9942 10.1386 17.7727 10.1452 17.5498C10.1518 17.3268 10.2097 17.1084 10.3143 16.9114C10.4189 16.7144 10.5675 16.5442 10.7485 16.4139L10.7497 16.413C11.5137 15.8652 12.8653 15.0108 14.5241 14.4797C16.1861 13.9477 18.2097 13.7245 20.2588 14.522L20.261 14.5228C21.5768 15.0393 22.7119 15.9683 23.6602 17.0302C24.7521 16.8669 25.855 16.7872 26.9595 16.7916C30.5104 16.7932 34.4947 17.8087 37.8454 19.2442C39.5253 19.9639 41.0665 20.7978 42.3299 21.6804ZM37.2036 20.7421C33.9975 19.3686 30.2332 18.4224 26.9574 18.4212L26.9544 18.4212C25.7894 18.4164 24.6263 18.513 23.4781 18.7098C23.1917 18.7588 22.9008 18.6517 22.7147 18.4286C21.8073 17.3406 20.78 16.4775 19.6666 16.0402C18.0727 15.4202 16.4539 15.573 15.021 16.0318C13.7101 16.4514 12.5994 17.114 11.8915 17.6022L16.2138 21.0693C16.3934 21.2134 16.5037 21.4267 16.5173 21.6566C16.5309 21.8865 16.4467 22.1114 16.2853 22.2757C16.001 22.5653 15.7316 22.8691 15.4782 23.1861L15.4728 23.1927C15.4034 23.2777 15.3658 23.3842 15.3664 23.494L15.3665 23.4987L15.3664 26.6501C15.3658 26.7599 15.4035 26.8665 15.473 26.9514L15.4788 26.9586C15.7306 27.2736 15.9983 27.5757 16.2806 27.8637C16.4418 28.028 16.526 28.2529 16.5123 28.4827C16.4986 28.7124 16.3883 28.9257 16.2088 29.0698L11.8905 32.5339C12.5955 33.0238 13.7069 33.6894 15.0188 34.1106C16.4519 34.5707 18.0699 34.7231 19.6596 34.1006C20.7751 33.6619 21.7976 32.8034 22.7059 31.7238C22.8926 31.5021 23.1829 31.3961 23.4685 31.4456C24.6181 31.6448 25.7829 31.7431 26.9496 31.7394L26.9545 31.7394C30.2368 31.7485 33.965 30.8371 37.149 29.4825C38.737 28.8069 40.1705 28.029 41.3312 27.2168C42.3684 26.4911 43.1529 25.7621 43.6453 25.0835C43.1837 24.4408 42.4226 23.733 41.3967 23.0163C40.2418 22.2095 38.8023 21.427 37.2036 20.7421Z" fill="#D8623C"/>
<path fill-rule="evenodd" clip-rule="evenodd" d="M11.4124 23.1943C11.767 23.4713 12.279 23.4085 12.5561 23.0539C12.8331 22.6993 12.7703 22.1872 12.4157 21.9101C11.7116 21.36 10.8439 21.0609 9.95032 21.0602L9.94837 21.0603C9.29908 21.0614 8.61021 21.3423 8.01828 21.6572C7.40174 21.9852 6.77741 22.4128 6.22873 22.8259C5.67707 23.2412 5.18523 23.6545 4.83218 23.963C4.65522 24.1176 4.51208 24.2469 4.41253 24.338C4.36274 24.3836 4.32378 24.4198 4.29689 24.4449L4.26573 24.4741L4.2572 24.4822L4.25372 24.4855C4.09184 24.6393 4 24.853 4 25.0763C4 25.2996 4.09183 25.5133 4.25371 25.6671L4.25719 25.6704L4.26573 25.6785L4.29691 25.7077C4.32382 25.7329 4.36279 25.769 4.41262 25.8147C4.51222 25.9059 4.65544 26.0352 4.83248 26.1899C5.1857 26.4986 5.67777 26.912 6.22962 27.3274C6.77846 27.7405 7.40299 28.168 8.01962 28.4958C8.61122 28.8103 9.30014 29.0908 9.94951 29.0909C10.8451 29.0926 11.7152 28.7925 12.4195 28.2391C12.7733 27.961 12.8347 27.4488 12.5567 27.095C12.2786 26.7412 11.7664 26.6797 11.4126 26.9578C10.9961 27.285 10.4816 27.4624 9.95198 27.4613L9.95002 27.4613C9.71579 27.4613 9.32122 27.3421 8.78449 27.0568C8.27249 26.7847 7.72365 26.4123 7.2096 26.0254C6.76244 25.6888 6.35409 25.3508 6.0356 25.0763C6.3539 24.802 6.76196 24.4642 7.20886 24.1278C7.72276 23.7409 8.27158 23.3683 8.78372 23.0958C9.31982 22.8106 9.71482 22.6905 9.95029 22.6899C10.4802 22.6905 10.9948 22.868 11.4124 23.1943ZM4.81481 25.0763C4.25353 24.4857 4.25362 24.4856 4.25372 24.4855L4.81481 25.0763ZM4.25371 25.6671C4.25361 25.667 4.25352 25.667 4.81481 25.0763L4.25371 25.6671Z" fill="#D8623C"/>
</svg>
