<svg width="32" height="32" viewBox="0 0 32 32" fill="none" xmlns="http://www.w3.org/2000/svg">
<path d="M30.2138 23.1164L28.8851 28.8769C28.6985 29.6912 27.9828 30.261 27.1444 30.261C12.7267 30.2598 1 18.5332 1 4.11487C1 3.27709 1.5697 2.56046 2.38411 2.37473L8.14458 1.04605C8.9835 0.851639 9.84072 1.2871 10.1893 2.08157L12.8478 8.28207C13.1586 9.01241 12.949 9.86334 12.3346 10.3651L9.25781 12.8356C11.1997 16.7913 14.4159 20.0076 18.3728 21.9506L20.8919 18.8761C21.3884 18.26 22.2457 18.0469 22.9761 18.3632L29.1766 21.0211C29.9223 21.4134 30.4081 22.2821 30.2138 23.1164Z" fill="#D8623C"/>
</svg>
