<svg width="27" height="25" viewBox="0 0 27 25" fill="none" xmlns="http://www.w3.org/2000/svg">
<path d="M10.6071 0C9.01758 0 7.71429 1.29958 7.71429 2.88462V3.84615H2.89286C1.30329 3.84615 0 5.14573 0 6.73077V22.1154C0 23.7004 1.30329 25 2.89286 25H24.1071C25.6967 25 27 23.7004 27 22.1154V6.73077C27 5.14573 25.6967 3.84615 24.1071 3.84615H19.2857V2.88462C19.2857 1.29958 17.9824 0 16.3929 0H10.6071ZM10.6071 1.92308H16.3929C16.9353 1.92308 17.3571 2.34375 17.3571 2.88462V3.84615H9.64286V2.88462C9.64286 2.34375 10.0647 1.92308 10.6071 1.92308ZM2.89286 5.76923H24.1071C24.6496 5.76923 25.0714 6.1899 25.0714 6.73077V15.3846H1.92857V6.73077C1.92857 6.1899 2.35045 5.76923 2.89286 5.76923ZM11.5714 11.5385V13.4615H15.4286V11.5385H11.5714ZM1.92857 17.3077H25.0714V22.1154C25.0714 22.6562 24.6496 23.0769 24.1071 23.0769H2.89286C2.35045 23.0769 1.92857 22.6562 1.92857 22.1154V17.3077Z" fill="#D8623C"/>
</svg>
