<svg width="25" height="25" viewBox="0 0 25 25" fill="none" xmlns="http://www.w3.org/2000/svg">
<path d="M0 0V20.8333C0 23.1201 1.87988 25 4.16667 25H20.8333C23.1201 25 25 23.1201 25 20.8333V6.25H18.75V0H0ZM2.08333 2.08333H16.6667V20.8333C16.6667 21.5983 16.8945 22.2982 17.2526 22.9167H4.16667C3.00293 22.9167 2.08333 21.9971 2.08333 20.8333V2.08333ZM4.16667 6.25V8.33333H14.5833V6.25H4.16667ZM18.75 8.33333H22.9167V20.8333C22.9167 21.9971 21.9971 22.9167 20.8333 22.9167C19.6696 22.9167 18.75 21.9971 18.75 20.8333V8.33333ZM4.16667 10.4167V12.5H8.33333V10.4167H4.16667ZM10.4167 10.4167V12.5H14.5833V10.4167H10.4167ZM4.16667 14.5833V16.6667H8.33333V14.5833H4.16667ZM10.4167 14.5833V16.6667H14.5833V14.5833H10.4167ZM4.16667 18.75V20.8333H8.33333V18.75H4.16667ZM10.4167 18.75V20.8333H14.5833V18.75H10.4167Z" fill="#D8623C"/>
</svg>
