<svg width="50" height="50" viewBox="0 0 50 50" fill="none" xmlns="http://www.w3.org/2000/svg">
<path fill-rule="evenodd" clip-rule="evenodd" d="M24.9993 17.0369C20.6015 17.0369 17.0364 20.602 17.0364 24.9998C17.0364 29.3976 20.6015 32.9627 24.9993 32.9627C29.3971 32.9627 32.9622 29.3976 32.9622 24.9998C32.9622 20.602 29.3971 17.0369 24.9993 17.0369ZM19.0392 24.9998C19.0392 21.7081 21.7076 19.0397 24.9993 19.0397C28.291 19.0397 30.9594 21.7081 30.9594 24.9998C30.9594 28.2915 28.291 30.9599 24.9993 30.9599C21.7076 30.9599 19.0392 28.2915 19.0392 24.9998Z" fill="#D8623C"/>
<path fill-rule="evenodd" clip-rule="evenodd" d="M24.9697 11.4678C17.7757 11.4678 10.5421 15.6308 4.93206 23.6725L4.92914 23.6767C4.66037 24.0662 4.51308 24.5266 4.50589 24.9998C4.49872 25.472 4.6314 25.9358 4.88722 26.3328C9.21566 33.1072 16.3574 38.5319 24.9697 38.5319C33.4907 38.5319 40.7746 33.0943 45.113 26.3012C45.362 25.9134 45.4945 25.4621 45.4945 25.0012C45.4945 24.5394 45.3616 24.0874 45.1117 23.6991L45.1102 23.6968C40.7664 16.9879 33.4335 11.4678 24.9697 11.4678ZM6.50841 25.0302C6.50958 24.9535 6.53327 24.8789 6.57652 24.8156C11.9201 17.1574 18.6 13.4705 24.9697 13.4705C32.5411 13.4705 39.3205 18.4406 43.428 24.7837C43.4696 24.8486 43.4917 24.9241 43.4917 25.0012C43.4917 25.0785 43.4694 25.1543 43.4276 25.2193L43.4256 25.2223C39.3318 31.633 32.606 36.5292 24.9697 36.5292C17.2477 36.5292 10.6619 31.652 6.57372 25.2526L6.57094 25.2483C6.529 25.1834 6.50724 25.1075 6.50841 25.0302Z" fill="#D8623C"/>
</svg>
