<svg width="26" height="26" viewBox="0 0 26 26" fill="none" xmlns="http://www.w3.org/2000/svg">
<path fill-rule="evenodd" clip-rule="evenodd" d="M22.2118 3.77844C19.7677 1.34316 16.5172 0.00142822 13.0544 0C5.91879 0 0.111459 5.77938 0.108588 12.8827C0.107632 15.1534 0.703672 17.37 1.8366 19.3239L0 26L6.86276 24.2084C8.75373 25.2349 10.8826 25.7759 13.0491 25.7766H13.0545C20.1893 25.7766 25.9973 19.9967 26 12.893C26.0014 9.45039 24.6561 6.21356 22.2118 3.77844ZM13.0544 23.6007H13.0499C11.1192 23.6 9.22571 23.0836 7.57345 22.1081L7.18071 21.8759L3.10824 22.9392L4.19525 18.9876L3.93932 18.5824C2.86221 16.8775 2.29343 14.9068 2.29439 12.8835C2.29662 6.97941 7.12363 2.17598 13.0587 2.17598C15.9327 2.17693 18.6343 3.29221 20.6658 5.31632C22.6972 7.34043 23.8153 10.0309 23.8144 12.8922C23.8118 18.7968 18.9851 23.6007 13.0544 23.6007V23.6007ZM18.9564 15.5806C18.633 15.4194 17.0426 14.6409 16.7461 14.5333C16.4498 14.4258 16.2339 14.3724 16.0185 14.6945C15.8027 15.0166 15.1829 15.7419 14.9941 15.9566C14.8053 16.1714 14.6169 16.1984 14.2933 16.0372C13.9698 15.8761 12.9276 15.536 11.692 14.4393C10.7305 13.5857 10.0813 12.5315 9.89255 12.2094C9.70408 11.8869 9.89096 11.7295 10.0345 11.5524C10.3846 11.1197 10.7353 10.666 10.8431 10.4513C10.951 10.2364 10.897 10.0483 10.816 9.88727C10.7353 9.7262 10.0884 8.14166 9.81888 7.4969C9.5561 6.86943 9.28965 6.95417 9.09097 6.94434C8.9025 6.93497 8.68676 6.93307 8.47102 6.93307C8.25543 6.93307 7.90495 7.01353 7.60837 7.33599C7.31194 7.65829 6.4764 8.43699 6.4764 10.0215C6.4764 11.6061 7.63547 13.1368 7.79716 13.3517C7.95885 13.5665 10.0782 16.8181 13.3229 18.2124C14.0947 18.5444 14.6971 18.7422 15.167 18.8906C15.9419 19.1356 16.6469 19.101 17.2043 19.0182C17.8259 18.9257 19.1179 18.2394 19.3877 17.4875C19.6572 16.7354 19.6572 16.091 19.5762 15.9566C19.4955 15.8223 19.2798 15.7419 18.9564 15.5806V15.5806Z" fill="#D8623C"/>
</svg>
