<svg width="50" height="50" viewBox="0 0 50 50" fill="none" xmlns="http://www.w3.org/2000/svg">
<circle cx="25" cy="25" r="25" fill="white"/>
<path d="M42.4794 17.3442V32.6581H38.7491V23.4742L35.3242 32.6581H32.3138L28.8671 23.4523V32.6581H25.1368V17.3442H29.5434L33.8408 27.9462L38.0947 17.3442H42.4794Z" fill="url(#paint0_linear_291_185)"/>
<path fill-rule="evenodd" clip-rule="evenodd" d="M8.83318 20.4227L7.96219 21.6916V25.7599C8.07493 25.8089 8.15376 25.9213 8.15376 26.0521C8.15376 26.2281 8.01111 26.3708 7.83514 26.3708C7.65918 26.3708 7.51653 26.2281 7.51653 26.0521C7.51653 25.9216 7.59498 25.8095 7.70729 25.7602V21.6521V21.6125L7.72966 21.5799L8.62303 20.2784L8.83318 20.4227Z" fill="url(#paint1_linear_291_185)"/>
<path fill-rule="evenodd" clip-rule="evenodd" d="M13.2346 28.3882L12.1938 27.2994L12.3781 27.1233L13.4541 28.249L13.4895 28.286V28.3371V29.5137L13.83 29.8543C13.8799 29.8219 13.9394 29.803 14.0034 29.803C14.1793 29.803 14.322 29.9457 14.322 30.1216C14.322 30.2976 14.1793 30.4403 14.0034 30.4403C13.8274 30.4403 13.6847 30.2976 13.6847 30.1216C13.6847 30.0557 13.7048 29.9944 13.7391 29.9436L13.4895 29.694V30.7956C13.6025 30.8445 13.6817 30.9571 13.6817 31.0882C13.6817 31.2641 13.539 31.4068 13.363 31.4068C13.1871 31.4068 13.0444 31.2641 13.0444 31.0882C13.0444 30.9579 13.1226 30.8459 13.2346 30.7965V28.3882Z" fill="url(#paint2_linear_291_185)"/>
<path fill-rule="evenodd" clip-rule="evenodd" d="M23.0472 21.6418C23.1586 21.5922 23.2363 21.4805 23.2363 21.3506C23.2363 21.1746 23.0936 21.032 22.9176 21.032C22.7417 21.032 22.599 21.1746 22.599 21.3506C22.599 21.4821 22.6786 21.5949 22.7923 21.6436V23.7149V28.236L21.7707 29.54L21.9714 29.6972L23.02 28.3585L23.0472 28.3239V28.2799V23.7589L23.7184 22.9021C23.7427 22.908 23.7682 22.9112 23.7943 22.9112C23.9703 22.9112 24.1129 22.7685 24.1129 22.5926C24.1129 22.4166 23.9703 22.2739 23.7943 22.2739C23.6184 22.2739 23.4757 22.4166 23.4757 22.5926C23.4757 22.6487 23.4903 22.7015 23.5158 22.7473L23.0472 23.3455V21.6418Z" fill="url(#paint3_linear_291_185)"/>
<path fill-rule="evenodd" clip-rule="evenodd" d="M17.5674 18.6244C17.6807 18.5756 17.7601 18.4629 17.7601 18.3317C17.7601 18.1557 17.6174 18.0131 17.4415 18.0131C17.2655 18.0131 17.1228 18.1557 17.1228 18.3317C17.1228 18.4617 17.2008 18.5736 17.3125 18.6231V20.059V20.1118L17.3498 20.1491L18.3758 21.1751L18.5561 20.9949L17.5674 20.0062V18.6244Z" fill="url(#paint4_linear_291_185)"/>
<path d="M21.9331 17.3442V32.6581H18.2028V26.3537H12.4001V32.6581H8.66979V17.3442H12.4001V23.3433H18.2028V17.3442H21.9331Z" fill="url(#paint5_linear_291_185)"/>
<path d="M12.4001 32.6581V26.3537V23.3433V17.3442H8.66979V32.6581H12.4001Z" fill="url(#paint6_linear_291_185)"/>
<defs>
<linearGradient id="paint0_linear_291_185" x1="25.1368" y1="25.0012" x2="42.4794" y2="25.0012" gradientUnits="userSpaceOnUse">
<stop stop-color="#004E92"/>
<stop offset="1" stop-color="#000428"/>
</linearGradient>
<linearGradient id="paint1_linear_291_185" x1="7.51653" y1="23.3246" x2="8.83318" y2="23.3246" gradientUnits="userSpaceOnUse">
<stop stop-color="#000428"/>
<stop offset="1" stop-color="#004E92"/>
</linearGradient>
<linearGradient id="paint2_linear_291_185" x1="12.1937" y1="29.265" x2="14.3218" y2="29.265" gradientUnits="userSpaceOnUse">
<stop stop-color="#000428"/>
<stop offset="1" stop-color="#004E92"/>
</linearGradient>
<linearGradient id="paint3_linear_291_185" x1="21.7707" y1="25.3646" x2="24.1129" y2="25.3646" gradientUnits="userSpaceOnUse">
<stop stop-color="#000428"/>
<stop offset="1" stop-color="#004E92"/>
</linearGradient>
<linearGradient id="paint4_linear_291_185" x1="17.1228" y1="19.5941" x2="18.5561" y2="19.5941" gradientUnits="userSpaceOnUse">
<stop stop-color="#000428"/>
<stop offset="1" stop-color="#004E92"/>
</linearGradient>
<linearGradient id="paint5_linear_291_185" x1="8.66979" y1="25.0012" x2="21.9331" y2="25.0012" gradientUnits="userSpaceOnUse">
<stop stop-color="#000428"/>
<stop offset="1" stop-color="#004E92"/>
</linearGradient>
<linearGradient id="paint6_linear_291_185" x1="8.66979" y1="25.0012" x2="12.4001" y2="25.0012" gradientUnits="userSpaceOnUse">
<stop stop-color="#11309F"/>
<stop offset="1" stop-color="#00082D"/>
</linearGradient>
</defs>
</svg>
