<svg width="132" height="54" viewBox="0 0 132 54" fill="none" xmlns="http://www.w3.org/2000/svg">
<path d="M0.289062 44.6432C0.289062 42.9859 0.647617 41.5118 1.36473 40.221C2.08184 38.9143 3.07782 37.9024 4.35268 37.1853C5.64348 36.4522 7.1016 36.0857 8.72704 36.0857C10.719 36.0857 12.4241 36.6116 13.8424 37.6634C15.2607 38.7151 16.2089 40.1493 16.687 41.966H12.1931C11.8584 41.2648 11.3803 40.731 10.7589 40.3645C10.1533 39.9979 9.46009 39.8147 8.67924 39.8147C7.42031 39.8147 6.40042 40.2529 5.61957 41.1294C4.83872 42.0058 4.4483 43.1771 4.4483 44.6432C4.4483 46.1093 4.83872 47.2806 5.61957 48.157C6.40042 49.0335 7.42031 49.4717 8.67924 49.4717C9.46009 49.4717 10.1533 49.2885 10.7589 48.922C11.3803 48.5554 11.8584 48.0216 12.1931 47.3204H16.687C16.2089 49.1371 15.2607 50.5713 13.8424 51.6231C12.4241 52.6589 10.719 53.1768 8.72704 53.1768C7.1016 53.1768 5.64348 52.8182 4.35268 52.1011C3.07782 51.3681 2.08184 50.3562 1.36473 49.0654C0.647617 47.7746 0.289062 46.3005 0.289062 44.6432Z" fill="url(#paint0_radial_219_84)"/>
<path d="M27.1261 53.2246C25.5485 53.2246 24.0983 52.8581 22.7757 52.125C21.4689 51.392 20.4251 50.3721 19.6443 49.0654C18.8794 47.7427 18.4969 46.2607 18.4969 44.6193C18.4969 42.9779 18.8794 41.5039 19.6443 40.1971C20.4251 38.8904 21.4689 37.8705 22.7757 37.1375C24.0983 36.4044 25.5485 36.0379 27.1261 36.0379C28.7038 36.0379 30.1459 36.4044 31.4527 37.1375C32.7753 37.8705 33.8112 38.8904 34.5602 40.1971C35.3251 41.5039 35.7075 42.9779 35.7075 44.6193C35.7075 46.2607 35.3251 47.7427 34.5602 49.0654C33.7952 50.3721 32.7594 51.392 31.4527 52.125C30.1459 52.8581 28.7038 53.2246 27.1261 53.2246ZM27.1261 49.4956C28.4647 49.4956 29.5324 49.0494 30.3292 48.157C31.1419 47.2646 31.5483 46.0854 31.5483 44.6193C31.5483 43.1373 31.1419 41.958 30.3292 41.0816C29.5324 40.1892 28.4647 39.743 27.1261 39.743C25.7716 39.743 24.688 40.1812 23.8752 41.0577C23.0784 41.9341 22.68 43.1213 22.68 44.6193C22.68 46.1013 23.0784 47.2885 23.8752 48.1809C24.688 49.0574 25.7716 49.4956 27.1261 49.4956Z" fill="url(#paint1_radial_219_84)"/>
<path d="M56.9849 36.2769V53.0573H52.8974V42.9939L49.1445 53.0573H45.8458L42.0691 42.97V53.0573H37.9815V36.2769H42.8101L47.5191 47.8941L52.1803 36.2769H56.9849Z" fill="url(#paint2_radial_219_84)"/>
<path d="M72.7128 41.6792C72.7128 42.6512 72.4897 43.5436 72.0435 44.3564C71.5973 45.1532 70.912 45.7986 69.9878 46.2926C69.0635 46.7866 67.9161 47.0336 66.5456 47.0336H64.0118V53.0573H59.9243V36.2769H66.5456C67.8842 36.2769 69.0157 36.508 69.94 36.9701C70.8642 37.4323 71.5574 38.0697 72.0196 38.8824C72.4817 39.6952 72.7128 40.6274 72.7128 41.6792ZM66.2349 43.7827C67.0157 43.7827 67.5974 43.5994 67.9799 43.2329C68.3623 42.8664 68.5535 42.3485 68.5535 41.6792C68.5535 41.0099 68.3623 40.4919 67.9799 40.1254C67.5974 39.7589 67.0157 39.5756 66.2349 39.5756H64.0118V43.7827H66.2349Z" fill="url(#paint3_radial_219_84)"/>
<path d="M78.8566 36.2769V46.3165C78.8566 47.3204 79.1036 48.0933 79.5976 48.6351C80.0916 49.1769 80.8167 49.4478 81.7728 49.4478C82.729 49.4478 83.462 49.1769 83.9719 48.6351C84.4819 48.0933 84.7369 47.3204 84.7369 46.3165V36.2769H88.8244V46.2926C88.8244 47.7905 88.5057 49.0574 87.8682 50.0932C87.2308 51.1291 86.3703 51.9099 85.2866 52.4358C84.2189 52.9617 83.0238 53.2246 81.7011 53.2246C80.3784 53.2246 79.1912 52.9696 78.1395 52.4597C77.1036 51.9338 76.2829 51.153 75.6774 50.1171C75.0718 49.0654 74.769 47.7905 74.769 46.2926V36.2769H78.8566Z" fill="url(#paint4_radial_219_84)"/>
<path d="M103.766 36.2769V39.5517H99.3199V53.0573H95.2324V39.5517H90.7863V36.2769H103.766Z" fill="url(#paint5_radial_219_84)"/>
<path d="M109.905 39.5517V42.9461H115.379V46.1013H109.905V49.7825H116.096V53.0573H105.817V36.2769H116.096V39.5517H109.905Z" fill="url(#paint6_radial_219_84)"/>
<path d="M127.307 53.0573L123.817 46.7228H122.837V53.0573H118.75V36.2769H125.61C126.933 36.2769 128.056 36.508 128.98 36.9701C129.921 37.4323 130.622 38.0697 131.084 38.8824C131.546 39.6792 131.777 40.5716 131.777 41.5596C131.777 42.6751 131.458 43.6711 130.821 44.5476C130.2 45.4241 129.275 46.0456 128.048 46.4121L131.921 53.0573H127.307ZM122.837 43.8305H125.371C126.12 43.8305 126.678 43.6472 127.044 43.2807C127.427 42.9142 127.618 42.3963 127.618 41.727C127.618 41.0895 127.427 40.5876 127.044 40.221C126.678 39.8545 126.12 39.6713 125.371 39.6713H122.837V43.8305Z" fill="url(#paint7_radial_219_84)"/>
<path d="M100.473 0.220947V30.2472H93.1586V12.24L86.4433 30.2472H80.5407L73.7826 12.1972V30.2472H66.4685V0.220947H75.1086L83.5347 21.0084L91.8754 0.220947H100.473Z" fill="url(#paint8_linear_219_84)"/>
<path d="M34.5009 6.25702L32.7931 8.74497V16.7218C33.0141 16.8181 33.1686 17.0384 33.1686 17.2948C33.1686 17.6398 32.8889 17.9195 32.5438 17.9195C32.1988 17.9195 31.9191 17.6398 31.9191 17.2948C31.9191 17.0389 32.073 16.8189 32.2934 16.7223V8.58995L34.0889 5.97418L34.5009 6.25702Z" fill="url(#paint9_linear_219_84)"/>
<path d="M43.1313 21.8752L41.0906 19.7404L41.4519 19.395L43.6311 21.6748V24.0821L44.2987 24.7497C44.3965 24.6862 44.5132 24.6493 44.6386 24.6493C44.9836 24.6493 45.2633 24.929 45.2633 25.274C45.2633 25.619 44.9836 25.8987 44.6386 25.8987C44.2935 25.8987 44.0138 25.619 44.0138 25.274C44.0138 25.1447 44.0531 25.0245 44.1204 24.9249L43.6311 24.4355V26.5956C43.8527 26.6916 44.0077 26.9122 44.0077 27.1691C44.0077 27.5141 43.728 27.7938 43.383 27.7938C43.0379 27.7938 42.7582 27.5141 42.7582 27.1691C42.7582 26.9136 42.9116 26.6939 43.1313 26.5971V21.8752Z" fill="url(#paint10_linear_219_84)"/>
<path d="M62.3712 8.64751C62.5899 8.55029 62.7424 8.33114 62.7424 8.07638C62.7424 7.73136 62.4627 7.45166 62.1177 7.45166C61.7727 7.45166 61.493 7.73136 61.493 8.07638C61.493 8.33397 61.6489 8.55515 61.8715 8.65071V21.5766L59.8685 24.1335L60.2619 24.4417L62.3712 21.7491V12.7983L63.6873 11.1183C63.7352 11.13 63.7851 11.1362 63.8366 11.1362C64.1816 11.1362 64.4613 10.8565 64.4613 10.5115C64.4613 10.1665 64.1816 9.88677 63.8366 9.88677C63.4915 9.88677 63.2119 10.1665 63.2119 10.5115C63.2119 10.6215 63.2403 10.7249 63.2903 10.8147L62.3712 11.9879V8.64751Z" fill="url(#paint11_linear_219_84)"/>
<path d="M51.6268 2.73106C51.8489 2.63529 52.0044 2.41437 52.0044 2.15714C52.0044 1.81211 51.7247 1.53241 51.3796 1.53241C51.0346 1.53241 50.7549 1.81211 50.7549 2.15714C50.7549 2.41225 50.9078 2.63166 51.127 2.72868V5.64744L53.2119 7.73237L53.5653 7.37897L51.6268 5.44043V2.73106Z" fill="url(#paint12_linear_219_84)"/>
<path d="M60.1869 0.220947V30.2472H52.8728V17.886H41.4953V30.2472H34.1812V0.220947H41.4953V11.9834H52.8728V0.220947H60.1869Z" fill="url(#paint13_linear_219_84)"/>
<path d="M41.4953 30.2472V17.886V11.9834V0.220947H34.1812V30.2472H41.4953Z" fill="url(#paint14_linear_219_84)"/>
<defs>
<radialGradient id="paint0_radial_219_84" cx="0" cy="0" r="1" gradientUnits="userSpaceOnUse" gradientTransform="translate(66.1959 27.5981) rotate(-0.713403) scale(56.7485 47.0087)">
<stop stop-color="#004E92"/>
<stop offset="1" stop-color="#000428"/>
</radialGradient>
<radialGradient id="paint1_radial_219_84" cx="0" cy="0" r="1" gradientUnits="userSpaceOnUse" gradientTransform="translate(66.1959 27.5981) rotate(-0.713403) scale(56.7485 47.0087)">
<stop stop-color="#004E92"/>
<stop offset="1" stop-color="#000428"/>
</radialGradient>
<radialGradient id="paint2_radial_219_84" cx="0" cy="0" r="1" gradientUnits="userSpaceOnUse" gradientTransform="translate(66.1959 27.5981) rotate(-0.713403) scale(56.7485 47.0087)">
<stop stop-color="#004E92"/>
<stop offset="1" stop-color="#000428"/>
</radialGradient>
<radialGradient id="paint3_radial_219_84" cx="0" cy="0" r="1" gradientUnits="userSpaceOnUse" gradientTransform="translate(66.1959 27.5981) rotate(-0.713403) scale(56.7485 47.0087)">
<stop stop-color="#004E92"/>
<stop offset="1" stop-color="#000428"/>
</radialGradient>
<radialGradient id="paint4_radial_219_84" cx="0" cy="0" r="1" gradientUnits="userSpaceOnUse" gradientTransform="translate(66.1959 27.5981) rotate(-0.713403) scale(56.7485 47.0087)">
<stop stop-color="#004E92"/>
<stop offset="1" stop-color="#000428"/>
</radialGradient>
<radialGradient id="paint5_radial_219_84" cx="0" cy="0" r="1" gradientUnits="userSpaceOnUse" gradientTransform="translate(66.1959 27.5981) rotate(-0.713403) scale(56.7485 47.0087)">
<stop stop-color="#004E92"/>
<stop offset="1" stop-color="#000428"/>
</radialGradient>
<radialGradient id="paint6_radial_219_84" cx="0" cy="0" r="1" gradientUnits="userSpaceOnUse" gradientTransform="translate(66.1959 27.5981) rotate(-0.713403) scale(56.7485 47.0087)">
<stop stop-color="#004E92"/>
<stop offset="1" stop-color="#000428"/>
</radialGradient>
<radialGradient id="paint7_radial_219_84" cx="0" cy="0" r="1" gradientUnits="userSpaceOnUse" gradientTransform="translate(66.1959 27.5981) rotate(-0.713403) scale(56.7485 47.0087)">
<stop stop-color="#004E92"/>
<stop offset="1" stop-color="#000428"/>
</radialGradient>
<linearGradient id="paint8_linear_219_84" x1="0.289062" y1="26.7228" x2="131.921" y2="26.7228" gradientUnits="userSpaceOnUse">
<stop stop-color="#004E92"/>
<stop offset="1" stop-color="#000428"/>
</linearGradient>
<linearGradient id="paint9_linear_219_84" x1="34.1812" y1="15.2341" x2="41.4953" y2="15.2341" gradientUnits="userSpaceOnUse">
<stop stop-color="#11309F"/>
<stop offset="1" stop-color="#00082D"/>
</linearGradient>
<linearGradient id="paint10_linear_219_84" x1="34.1812" y1="15.2341" x2="41.4953" y2="15.2341" gradientUnits="userSpaceOnUse">
<stop stop-color="#11309F"/>
<stop offset="1" stop-color="#00082D"/>
</linearGradient>
<linearGradient id="paint11_linear_219_84" x1="34.1812" y1="15.2341" x2="41.4953" y2="15.2341" gradientUnits="userSpaceOnUse">
<stop stop-color="#11309F"/>
<stop offset="1" stop-color="#00082D"/>
</linearGradient>
<linearGradient id="paint12_linear_219_84" x1="34.1812" y1="15.2341" x2="41.4953" y2="15.2341" gradientUnits="userSpaceOnUse">
<stop stop-color="#11309F"/>
<stop offset="1" stop-color="#00082D"/>
</linearGradient>
<linearGradient id="paint13_linear_219_84" x1="0.289062" y1="26.7228" x2="131.921" y2="26.7228" gradientUnits="userSpaceOnUse">
<stop stop-color="#000428"/>
<stop offset="1" stop-color="#004E92"/>
</linearGradient>
<linearGradient id="paint14_linear_219_84" x1="34.1812" y1="15.2341" x2="41.4953" y2="15.2341" gradientUnits="userSpaceOnUse">
<stop stop-color="#11309F"/>
<stop offset="1" stop-color="#00082D"/>
</linearGradient>
</defs>
</svg>
