<svg width="553" height="244" viewBox="0 0 553 244" fill="none" xmlns="http://www.w3.org/2000/svg">
<g style="mix-blend-mode:multiply">
<path d="M142 59.6362L152.585 53.4402L155.683 55.2474C157.779 56.3999 160.132 57.0041 162.524 57.0041C164.916 57.0041 167.27 56.3999 169.366 55.2474C173.238 53.182 173.238 49.5678 169.624 47.2443L166.526 45.4371L176.852 39.4993L179.95 41.3064C182.093 42.4588 184.488 43.062 186.921 43.062C189.354 43.062 191.749 42.4588 193.891 41.3064C197.764 38.9829 197.764 35.3686 193.891 33.3033L190.793 31.4961L225.646 11.3592L542.673 195.69L507.821 215.568L504.723 213.761C502.539 212.745 500.16 212.219 497.752 212.219C495.344 212.219 492.965 212.745 490.782 213.761C486.909 216.085 486.909 219.699 490.782 222.022L493.88 223.829L483.553 229.767L480.455 227.96C478.313 226.808 475.918 226.205 473.485 226.205C471.052 226.205 468.657 226.808 466.514 227.96C462.642 230.284 462.642 233.64 466.514 235.963L469.612 237.77L459.027 243.708L303.095 153.092L310.582 148.961C317.811 144.831 310.324 137.602 300.772 139.409C297.932 139.926 297.158 140.7 289.413 145.089L142 59.6362Z" fill="#91B6ED"/>
</g>
<path d="M207.058 31.2383C207.058 28.3985 203.96 27.1076 201.121 25.5587V20.1372C208.091 24.0097 207.058 23.4934 207.058 31.2383Z" fill="#380832"/>
<path d="M182.791 45.1792C182.791 42.3393 179.693 41.0486 176.853 39.4996V34.3363C183.565 38.2088 182.791 37.4342 182.791 45.1792Z" fill="#380832"/>
<path d="M152.585 48.2771V53.4404L168.591 62.7345V57.5712L152.585 48.2771Z" fill="#380832"/>
<path d="M311.357 133.472V128.308C316.778 127.276 323.749 129.599 323.749 133.73V138.893C323.749 134.763 317.037 132.439 311.357 133.472Z" fill="#380832"/>
<path d="M168.591 57.5712L299.739 133.988C307.484 129.599 308.259 128.825 311.357 128.308L179.176 51.3751L168.591 57.5712Z" fill="#FFE480"/>
<path d="M311.357 128.308V133.472C308.259 133.988 306.968 135.021 299.739 139.151V133.988C306.968 129.857 308.259 128.825 311.357 128.308Z" fill="#FF8B1F"/>
<path d="M168.591 57.5714V62.7347L299.74 139.152V133.988L168.591 57.5714Z" fill="#FEB42B"/>
<path d="M518.148 204.467V209.63L553 189.493V184.33L518.148 204.467Z" fill="#95115A"/>
<path d="M498.269 211.954V206.791C498.269 202.918 504.465 200.595 509.886 201.111C512.902 201.424 515.767 202.588 518.148 204.467V209.63L515.05 207.823C509.112 204.209 498.269 206.791 498.269 211.954Z" fill="#380832"/>
<path d="M493.88 218.408V223.83L504.207 217.634V212.47L493.88 218.408Z" fill="#95115A"/>
<path d="M323.491 135.279C322.963 136.358 322.038 137.191 320.91 137.602L313.681 141.991L446.378 218.925L456.963 212.987L323.491 135.279Z" fill="#FFE480"/>
<path d="M313.68 141.992V147.155L446.378 224.346V218.925L313.68 141.992Z" fill="#FEB42B"/>
<path d="M474.002 225.895V220.732C474.002 217.117 480.456 214.019 487.168 215.31C489.564 215.956 491.834 217.003 493.88 218.408V223.83C490.982 221.607 487.462 220.343 483.812 220.215C478.39 220.215 474.002 223.055 474.002 225.895Z" fill="#380832"/>
<path d="M469.613 232.607V237.771L479.939 231.833V226.411L469.613 232.607Z" fill="#95115A"/>
<path d="M162.912 42.3392L152.585 48.277L168.591 57.5711L179.176 51.375L311.357 128.308C318.327 127.018 325.814 130.89 323.491 135.279L456.962 212.987L446.378 218.925L469.613 232.607L479.939 226.411L476.841 224.604C472.969 222.539 472.969 218.925 476.841 216.601C479.024 215.585 481.404 215.059 483.812 215.059C486.22 215.059 488.599 215.585 490.782 216.601L493.88 218.408L504.207 212.47L501.109 210.663C497.494 208.34 497.494 204.725 501.367 202.66C503.463 201.507 505.816 200.903 508.208 200.903C510.6 200.903 512.954 201.507 515.05 202.66L518.148 204.467L553 184.33L235.973 0L201.12 20.137L204.218 21.9441C208.091 24.2676 208.091 27.882 204.218 29.9473C202.076 31.0997 199.681 31.703 197.248 31.703C194.815 31.703 192.42 31.0997 190.277 29.9473L187.179 28.1401L176.853 34.3362L179.951 36.1432C183.823 38.2085 183.823 41.8229 179.951 44.1464C177.767 45.1623 175.388 45.6887 172.98 45.6887C170.572 45.6887 168.193 45.1623 166.01 44.1464L162.912 42.3392Z" fill="#154336"/>
<path d="M248.881 24.2677C247.849 24.784 247.848 25.5585 248.623 26.0749L258.95 32.0126C259.428 32.2615 259.959 32.3915 260.499 32.3915C261.038 32.3915 261.569 32.2615 262.048 32.0126L266.695 29.431C266.856 29.3417 266.991 29.2108 267.084 29.0519C267.178 28.893 267.227 28.7119 267.227 28.5275C267.227 28.343 267.178 28.1618 267.084 28.0029C266.991 27.844 266.856 27.7131 266.695 27.6238L256.368 21.686C255.89 21.4371 255.358 21.3072 254.819 21.3072C254.28 21.3072 253.748 21.4371 253.27 21.686L248.881 24.2677Z" fill="#FFE480"/>
<path d="M313.164 61.7017C312.39 62.218 312.132 62.9924 313.164 63.2506L323.491 69.4466C323.94 69.6384 324.423 69.7372 324.911 69.7372C325.399 69.7372 325.882 69.6384 326.331 69.4466L330.978 66.6069C331.752 66.3487 331.752 65.5741 330.978 65.0578L320.651 58.8619C319.635 58.5996 318.569 58.5996 317.553 58.8619L313.164 61.7017Z" fill="#FFE480"/>
<path d="M370.735 108.43C370.574 108.519 370.439 108.65 370.345 108.809C370.252 108.968 370.202 109.149 370.202 109.334C370.202 109.518 370.252 109.699 370.345 109.858C370.439 110.017 370.574 110.148 370.735 110.237L375.382 112.819C375.86 113.068 376.392 113.198 376.931 113.198C377.47 113.198 378.001 113.068 378.48 112.819L388.807 106.881C388.968 106.792 389.102 106.661 389.196 106.502C389.29 106.343 389.339 106.162 389.339 105.977C389.339 105.793 389.29 105.612 389.196 105.453C389.102 105.294 388.968 105.163 388.807 105.074L384.159 102.492C383.681 102.243 383.15 102.113 382.61 102.113C382.071 102.113 381.54 102.243 381.062 102.492L370.735 108.43Z" fill="#FFE480"/>
<path d="M407.136 116.174C406.974 116.264 406.84 116.395 406.746 116.553C406.652 116.712 406.603 116.894 406.603 117.078C406.603 117.262 406.652 117.443 406.746 117.602C406.84 117.761 406.974 117.892 407.136 117.982L417.462 123.919C417.894 124.169 418.384 124.3 418.882 124.3C419.381 124.3 419.871 124.169 420.302 123.919L424.949 121.338C425.111 121.248 425.245 121.117 425.339 120.959C425.433 120.8 425.482 120.619 425.482 120.434C425.482 120.25 425.433 120.069 425.339 119.91C425.245 119.751 425.111 119.62 424.949 119.531L414.623 113.593C414.191 113.343 413.701 113.212 413.203 113.212C412.704 113.212 412.215 113.343 411.783 113.593L407.136 116.174Z" fill="#FFE480"/>
<path d="M340.788 125.726C340.626 125.816 340.492 125.947 340.398 126.106C340.304 126.264 340.255 126.446 340.255 126.63C340.255 126.815 340.304 126.996 340.398 127.155C340.492 127.313 340.626 127.444 340.788 127.534L345.435 130.115C345.913 130.364 346.445 130.494 346.984 130.494C347.523 130.494 348.054 130.364 348.533 130.115L358.859 124.178C359.021 124.088 359.155 123.957 359.249 123.798C359.343 123.639 359.392 123.458 359.392 123.274C359.392 123.089 359.343 122.908 359.249 122.749C359.155 122.591 359.021 122.46 358.859 122.37L354.212 119.789C353.734 119.54 353.203 119.41 352.663 119.41C352.124 119.41 351.593 119.54 351.114 119.789L340.788 125.726Z" fill="#FFE480"/>
<path d="M468.58 152.06C468.419 152.149 468.284 152.28 468.19 152.439C468.097 152.598 468.047 152.779 468.047 152.964C468.047 153.148 468.097 153.329 468.19 153.488C468.284 153.647 468.419 153.778 468.58 153.867L478.907 159.805C479.385 160.054 479.916 160.184 480.456 160.184C480.995 160.184 481.526 160.054 482.005 159.805L486.652 157.223C486.813 157.134 486.948 157.003 487.041 156.844C487.135 156.685 487.184 156.504 487.184 156.32C487.184 156.135 487.135 155.954 487.041 155.795C486.948 155.636 486.813 155.506 486.652 155.416L476.325 149.479C475.847 149.23 475.315 149.1 474.776 149.1C474.237 149.1 473.705 149.23 473.227 149.479L468.58 152.06Z" fill="#FFE480"/>
<path d="M488.717 177.102C487.942 177.619 487.942 178.393 488.717 178.651L493.364 181.491C493.796 181.74 494.285 181.872 494.784 181.872C495.282 181.872 495.772 181.74 496.204 181.491L506.53 175.295C507.563 175.037 507.563 174.263 506.53 173.746L502.142 171.165C501.175 170.703 500.073 170.612 499.044 170.906L488.717 177.102Z" fill="#FFE480"/>
<path d="M458.77 194.399C458.609 194.488 458.474 194.619 458.38 194.778C458.287 194.937 458.237 195.118 458.237 195.302C458.237 195.487 458.287 195.668 458.38 195.827C458.474 195.985 458.609 196.116 458.77 196.206L463.159 198.787C463.637 199.036 464.168 199.166 464.708 199.166C465.247 199.166 465.778 199.036 466.257 198.787L476.583 192.85C477.616 192.333 477.616 191.559 476.583 191.042L472.195 188.461C471.716 188.212 471.185 188.082 470.645 188.082C470.106 188.082 469.575 188.212 469.097 188.461L458.77 194.399Z" fill="#FFE480"/>
<path d="M446.377 218.925V224.346L469.612 237.771V232.608L446.377 218.925Z" fill="#380832"/>
<path d="M201.12 47.5026C201.016 46.9236 201.113 46.3264 201.395 45.8099C201.676 45.2935 202.126 44.8889 202.669 44.6628L236.489 25.3004C237.727 24.666 239.099 24.3351 240.49 24.3351C241.882 24.3351 243.253 24.666 244.492 25.3004L309.808 63.2506C310.262 63.4486 310.649 63.7729 310.924 64.1849C311.198 64.5968 311.349 65.0791 311.357 65.5742V70.7375C311.321 71.2254 311.159 71.6958 310.888 72.1028C310.616 72.5099 310.244 72.84 309.808 73.061C272.89 94.2306 274.955 93.456 271.857 93.456C270.495 93.4837 269.153 93.1258 267.985 92.4235C200.087 53.1823 201.12 54.4731 201.12 52.4078V47.5026Z" fill="#70BFE6"/>
<path d="M202.669 44.6628C202.232 44.8742 201.864 45.2043 201.607 45.6152C201.349 46.0261 201.213 46.5012 201.213 46.9862C201.213 47.4712 201.349 47.9465 201.607 48.3574C201.864 48.7683 202.232 49.0984 202.669 49.3098L267.985 87.2601C269.223 87.8945 270.595 88.2253 271.987 88.2253C273.378 88.2253 274.75 87.8945 275.988 87.2601L309.808 67.8977C310.244 67.6863 310.612 67.3561 310.87 66.9452C311.127 66.5343 311.264 66.0592 311.264 65.5742C311.264 65.0892 311.127 64.6141 310.87 64.2031C310.612 63.7922 310.244 63.462 309.808 63.2506L244.492 25.3004C243.253 24.666 241.882 24.3351 240.49 24.3351C239.099 24.3351 237.727 24.666 236.489 25.3004L202.669 44.6628Z" fill="white"/>
<path d="M293.027 100.943C293.027 99.9107 293.543 99.1362 294.834 98.3617L328.396 78.741C329.634 78.1066 331.006 77.7759 332.397 77.7759C333.789 77.7759 335.16 78.1066 336.399 78.741L356.277 90.3585C356.694 90.5365 357.057 90.8211 357.329 91.1837C357.6 91.5462 357.772 91.974 357.826 92.4239V97.8453C357.837 98.1477 357.772 98.448 357.637 98.7186C357.501 98.9892 357.3 99.2216 357.052 99.3943C356.536 99.9106 322.458 119.789 321.167 120.048C320.255 120.375 319.296 120.55 318.327 120.564C314.971 120.564 314.713 119.789 294.576 108.172C294.154 107.933 293.794 107.598 293.525 107.195C293.256 106.791 293.085 106.33 293.027 105.848V100.685V100.943Z" fill="#052440"/>
<path d="M294.835 98.3617C292.511 99.6525 292.511 101.718 294.577 102.751L314.455 114.368C315.694 115.002 317.065 115.333 318.457 115.333C319.848 115.333 321.22 115.002 322.459 114.368L356.278 94.7473C358.343 93.4565 358.343 91.3911 356.278 90.3585L336.399 78.741C335.161 78.1066 333.789 77.7759 332.398 77.7759C331.006 77.7759 329.635 78.1066 328.396 78.741L294.835 98.3617Z" fill="#005995"/>
<path d="M368.928 145.088C368.824 144.509 368.921 143.912 369.202 143.396C369.484 142.879 369.934 142.475 370.477 142.249L404.297 122.886C405.535 122.252 406.907 121.921 408.298 121.921C409.69 121.921 411.061 122.252 412.3 122.886L431.92 134.245C433.727 135.278 433.727 136.569 433.727 136.569V141.732C433.69 142.089 433.579 142.433 433.401 142.744C433.223 143.056 432.983 143.326 432.695 143.539L397.068 164.193L394.228 164.709C390.872 164.709 390.355 163.676 370.477 152.059C370.043 151.906 369.665 151.629 369.389 151.261C369.113 150.893 368.953 150.452 368.928 149.994V145.088V145.088Z" fill="#052440"/>
<path d="M370.477 142.249C370.041 142.46 369.672 142.79 369.415 143.201C369.157 143.612 369.021 144.087 369.021 144.572C369.021 145.057 369.157 145.532 369.415 145.943C369.672 146.354 370.041 146.684 370.477 146.896L390.356 158.513C391.583 159.024 392.899 159.287 394.228 159.287C395.558 159.287 396.874 159.024 398.101 158.513L431.92 138.892C434.244 137.602 434.244 135.536 431.92 134.245L412.3 122.886C411.061 122.252 409.69 121.921 408.298 121.921C406.907 121.921 405.535 122.252 404.297 122.886L370.477 142.249Z" fill="#005995"/>
<path d="M415.656 172.197C415.552 171.618 415.649 171.02 415.931 170.504C416.212 169.987 416.662 169.583 417.205 169.357L451.025 149.994C452.263 149.36 453.635 149.029 455.026 149.029C456.418 149.029 457.789 149.36 459.028 149.994L478.649 161.354C480.456 162.386 480.197 163.677 480.197 163.677V168.84C480.208 169.18 480.145 169.518 480.011 169.83C479.877 170.142 479.676 170.421 479.423 170.648L443.538 191.301C442.716 191.617 441.824 191.706 440.956 191.559C437.6 191.559 437.084 190.784 417.205 179.167C416.751 178.969 416.364 178.645 416.089 178.233C415.815 177.821 415.664 177.339 415.656 176.843V172.197V172.197Z" fill="#052440"/>
<path d="M417.205 169.357C414.882 170.648 414.882 172.713 417.205 174.004L436.826 185.363C438.064 185.997 439.436 186.328 440.827 186.328C442.219 186.328 443.59 185.997 444.829 185.363L478.649 166.001C480.714 164.71 480.972 162.644 478.649 161.354L459.028 149.994C457.789 149.36 456.418 149.029 455.026 149.029C453.635 149.029 452.263 149.36 451.025 149.994L417.205 169.357Z" fill="#005995"/>
<g style="mix-blend-mode:multiply">
<path d="M223.464 149.31C221.601 149.02 219.694 149.266 217.966 150.019C217.611 147.004 216.547 143.812 213.887 142.393C207.857 138.846 207.68 138.669 206.616 138.314C205.69 138.073 204.727 138.013 203.778 138.136C203.246 133.703 201.118 131.042 199.344 130.156C192.427 126.254 192.427 126.076 191.363 125.722C185.156 123.771 178.062 129.269 173.983 134.235L1.77356 33.8532H1.41895V47.332L168.13 144.521C164.938 152.857 165.115 161.547 170.613 164.562L177.175 168.464L176.643 168.109C177.837 168.89 179.198 169.377 180.616 169.531C182.034 169.685 183.468 169.502 184.801 168.996C185.402 170.714 186.597 172.161 188.171 173.075L194.024 176.622C194.024 176.528 193.986 176.438 193.92 176.371C193.853 176.305 193.763 176.267 193.669 176.267C196.329 178.218 200.054 177.686 203.069 176.09C203.162 177.323 203.529 178.519 204.143 179.593C204.756 180.667 205.601 181.59 206.616 182.297L280.572 226.99C285.293 232.556 291.71 236.419 298.839 237.986C308.948 239.227 322.249 231.601 324.378 220.428C324.866 217.835 324.55 215.154 323.473 212.745C322.395 210.336 320.607 208.313 318.348 206.949C298.307 194.712 224.528 149.487 223.464 149.31Z" fill="#AAD9F0"/>
</g>
<path d="M205.729 149.841C205.729 154.098 201.295 158.886 198.635 157.29L0 41.4787V28H0.532144L204.665 147.181C205.374 147.536 205.729 148.422 205.729 149.841Z" fill="#AAD9F0"/>
<path d="M203.601 146.649L199.167 151.969C6.5627 40.06 18.9773 47.5087 15.2529 44.4938C11.5285 41.4788 9.22298 38.6411 0.532715 28.1773L203.601 146.649Z" fill="#E9F5FB"/>
<path d="M198.103 124.48C191.186 120.578 191.008 120.401 189.944 120.046C186.22 118.805 182.141 120.401 178.948 122.706C165.647 131.574 159.972 153.388 169.194 158.886L175.933 162.788L175.401 162.433C184.978 169.173 202.714 150.905 202.714 134.589C202.714 126.608 198.103 124.48 198.103 124.48Z" fill="#111111"/>
<path d="M186.93 125.544C195.62 120.578 202.714 124.657 202.714 134.589C202.714 144.521 195.62 156.581 187.107 161.724C178.594 166.867 171.323 162.611 171.323 152.679C171.323 142.747 178.239 130.687 186.93 125.544Z" fill="#3D3D3D"/>
<path d="M196.507 134.412C189.59 138.313 183.383 148.068 182.851 156.935C173.274 151.615 184.979 131.219 194.024 133.17C194.379 133.17 194.202 132.993 196.507 134.412Z" fill="#111111"/>
<path d="M216.725 146.117C216.547 160.66 200.763 176.444 192.25 170.414L192.782 170.769L186.93 167.399C177.885 162.256 184.801 140.974 196.507 134.412C197.784 133.524 199.231 132.909 200.756 132.604C202.282 132.298 203.854 132.31 205.374 132.638L212.646 136.717C214.597 137.604 217.079 141.506 216.725 146.117Z" fill="#E9F5FB"/>
<path d="M202.714 137.604C210.341 133.171 216.725 136.718 216.725 145.585C216.725 154.453 210.518 165.449 202.714 169.883C194.911 174.316 188.704 170.769 188.704 161.902C188.704 153.034 194.911 142.038 202.714 137.604Z" fill="#AAD9F0"/>
<path d="M214.774 145.053C210.892 147.571 207.663 150.973 205.35 154.981C203.038 158.989 201.709 163.488 201.473 168.109L198.458 166.158C196.862 165.449 195.088 162.611 195.798 157.823C197.216 149.664 204.665 141.683 210.34 142.748L214.774 145.053Z" fill="#111111"/>
<path d="M316.752 211.914C313.204 223.265 301.854 233.197 295.115 228.763C295.115 228.81 295.133 228.855 295.167 228.888C295.2 228.921 295.245 228.94 295.292 228.94L205.374 176.444C204.493 176.01 203.755 175.333 203.246 174.493C196.329 164.561 210.695 141.151 222.223 143.634C223.642 143.988 313.914 196.662 313.914 196.662C316.752 197.903 319.412 203.401 316.752 211.914Z" fill="#232323"/>
<path d="M316.752 211.915C315.815 215.057 314.312 218.002 312.318 220.605C296.534 211.383 218.853 165.981 203.956 157.822C205.324 154.764 207.181 151.948 209.454 149.487C211.582 150.551 314.978 210.319 316.752 211.915Z" fill="#3D3D3D"/>
<path d="M315.688 193.825C308.771 189.746 308.594 189.568 307.529 189.213C306.465 188.859 299.726 189.745 296.534 191.874C283.232 200.919 277.557 222.733 286.779 228.054L293.519 231.955L292.987 231.601C302.564 238.34 320.299 220.25 320.299 203.756C320.299 195.775 315.688 193.825 315.688 193.825Z" fill="#E9F5FB"/>
<path d="M304.515 194.889C313.205 189.923 320.299 193.824 320.299 203.756C320.299 213.688 313.205 225.925 304.515 230.891C295.825 235.857 288.908 231.955 288.908 221.846C288.908 211.737 295.825 199.854 304.515 194.889Z" fill="#AAD9F0"/>
<path d="M304.515 199.323C311.077 195.598 316.397 198.613 316.397 206.062C316.16 210.157 314.961 214.138 312.896 217.682C310.831 221.226 307.96 224.232 304.515 226.458C298.13 230.182 292.809 227.167 292.809 219.718C292.809 212.269 297.952 203.047 304.515 199.323Z" fill="#111111"/>
</svg>
