<svg width="80" height="80" viewBox="0 0 80 80" fill="none" xmlns="http://www.w3.org/2000/svg">
<path fill-rule="evenodd" clip-rule="evenodd" d="M68.6835 12.8287C67.8815 12.0267 66.7937 11.5761 65.6595 11.5761H14.3407C13.2065 11.5761 12.1187 12.0267 11.3167 12.8287C10.5147 13.6307 10.0642 14.7185 10.0642 15.8527V65.4009L18.6173 56.8478C20.2209 55.2437 22.3961 54.3422 24.6643 54.3417H65.6595C66.7937 54.3417 67.8815 53.8912 68.6835 53.0892C69.4855 52.2872 69.936 51.1994 69.936 50.0652V15.8527C69.936 14.7185 69.4855 13.6307 68.6835 12.8287ZM8.29275 9.80471C9.89677 8.20069 12.0723 7.29956 14.3407 7.29956H65.6595C67.9279 7.29956 70.1034 8.20069 71.7074 9.80471C73.3115 11.4087 74.2126 13.5843 74.2126 15.8527V50.0652C74.2126 52.3336 73.3115 54.5091 71.7074 56.1132C70.1034 57.7172 67.9279 58.6183 65.6595 58.6183H24.6643C23.5302 58.6185 22.4426 59.0693 21.6408 59.8713L9.43978 72.0724C9.14098 72.3719 8.76003 72.5761 8.34514 72.6591C7.93025 72.742 7.50007 72.7 7.10905 72.5384C6.71804 72.3768 6.38376 72.1028 6.14853 71.7511C5.9133 71.3994 5.78769 70.9859 5.7876 70.5627V15.8527C5.7876 13.5843 6.68873 11.4087 8.29275 9.80471ZM32.4962 24.8294C33.9412 25.3667 35.1728 26.3586 36.0059 27.6559V27.6645C38.6189 31.5048 39.4442 38.6638 33.0893 45.2497C32.7603 45.59 32.3097 45.7856 31.8365 45.7936C31.3633 45.8017 30.9064 45.6214 30.5661 45.2925C30.2258 44.9635 30.0302 44.5129 30.0221 44.0397C30.0141 43.5665 30.1944 43.1096 30.5233 42.7693C32.2425 40.9902 33.286 39.2155 33.8462 37.5519C32.7686 38.2366 31.527 38.6193 30.2509 38.6601C28.9749 38.701 27.7113 38.3984 26.5921 37.784C25.473 37.1695 24.5394 36.2659 23.8888 35.1673C23.2383 34.0688 22.8947 32.8157 22.8939 31.539C22.8862 29.9973 23.3791 28.4947 24.2985 27.2571C25.2179 26.0195 26.5141 25.1137 27.9924 24.6759C29.4707 24.2382 31.0511 24.292 32.4962 24.8294ZM49.6024 24.8294C51.0475 25.3667 52.2791 26.3586 53.1121 27.6559V27.6645C55.7251 31.5048 56.5505 38.6638 50.1955 45.2497C49.8666 45.59 49.416 45.7856 48.9428 45.7936C48.4696 45.8017 48.0126 45.6214 47.6723 45.2925C47.3321 44.9635 47.1364 44.5129 47.1284 44.0397C47.1204 43.5665 47.3007 43.1096 47.6296 42.7693C49.3488 40.9902 50.3922 39.2155 50.9525 37.5519C49.8749 38.2366 48.6332 38.6193 47.3572 38.6601C46.0811 38.701 44.8175 38.3984 43.6984 37.784C42.5792 37.1695 41.6456 36.2659 40.9951 35.1673C40.3446 34.0688 40.001 32.8157 40.0002 31.539C39.9925 29.9973 40.4853 28.4947 41.4047 27.2571C42.3241 26.0195 43.6204 25.1137 45.0986 24.6759C46.5769 24.2382 48.1574 24.292 49.6024 24.8294Z" fill="#D8623C"/>
</svg>
