<svg width="514" height="518" viewBox="0 0 514 518" fill="none" xmlns="http://www.w3.org/2000/svg">
<g style="mix-blend-mode:multiply">
<path d="M20.448 427.29L171.929 513.881C176.582 516.558 181.859 517.958 187.227 517.94C192.595 517.922 197.862 516.485 202.497 513.776L507.232 336.735C508.683 335.891 509.887 334.68 510.723 333.225C511.56 331.769 512 330.12 512 328.441C512 326.763 511.56 325.113 510.723 323.658C509.887 322.203 508.683 320.992 507.232 320.148L345.214 227.506C343.749 226.684 342.096 226.252 340.415 226.252C338.735 226.252 337.082 226.684 335.616 227.506L20.448 410.702C18.9975 411.547 17.7938 412.758 16.9572 414.213C16.1206 415.668 15.6804 417.318 15.6804 418.996C15.6804 420.675 16.1206 422.324 16.9572 423.78C17.7938 425.235 18.9975 426.445 20.448 427.29V427.29Z" fill="#AAD9F0"/>
</g>
<path d="M34.4276 364.591L50.0765 362.608L336.764 196L321.115 197.982L34.4276 364.591Z" fill="#82C7E3"/>
<path d="M50.0765 362.608L180.379 437.827L467.067 271.219L336.764 196L50.0765 362.608Z" fill="#AAD9F0"/>
<path d="M59.9874 362.504L180.379 432.089L457.156 271.219L336.764 201.738C38.8093 374.919 359.82 188.28 59.9874 362.504Z" fill="#3DA9F2"/>
<path d="M200.306 281.025V350.506L207.817 346.125V276.644L200.306 281.025Z" fill="#AAD9F0"/>
<path d="M114.446 394.011L119.766 397.036L207.817 346.125V340.074L114.446 394.011Z" fill="#AAD9F0"/>
<path d="M180.38 437.828L196.028 457.858L482.716 291.25L467.067 271.219L180.38 437.828Z" fill="#82C7E3"/>
<path d="M195.924 493.224L482.611 326.72V291.25L196.028 457.858C195.924 483.418 195.924 475.489 195.924 493.224Z" fill="#3DA9F2"/>
<path d="M477.604 323.799L477.708 300.013L200.932 460.779V484.565L477.604 323.799Z" fill="#005995"/>
<path d="M356.69 398.705C356.69 397.558 358.046 396.932 359.194 396.306V394.115C356.377 395.784 356.69 395.471 356.69 398.705Z" fill="#154336"/>
<path d="M271.352 453.893V451.703C268.952 451.285 266.135 452.329 266.135 453.998V456.084C266.135 454.415 268.952 453.476 271.352 453.893Z" fill="#154336"/>
<path d="M362.637 403.817L276.046 454.102C272.917 452.224 272.604 451.911 271.352 451.703L358.255 401.313L362.637 403.817Z" fill="#FFE480"/>
<path d="M271.352 451.703V453.893C272.604 454.102 273.125 454.519 276.046 456.189V454.102C275.212 453.58 272.291 451.703 271.352 451.703Z" fill="#FF8B1F"/>
<path d="M362.637 403.817V406.008L276.046 456.189V454.102L362.637 403.817Z" fill="#FEB42B"/>
<path d="M381.624 385.977L363.889 396.514C360.759 394.636 360.446 394.323 359.194 394.115L377.242 383.473L381.624 385.977Z" fill="#FFE480"/>
<path d="M203.644 456.189L228.161 470.273L229.413 469.543C230.297 469.077 231.282 468.833 232.282 468.833C233.281 468.833 234.266 469.077 235.151 469.543C236.715 470.482 236.715 471.942 235.151 472.881L233.899 473.611L238.176 476.115L247.774 470.482L243.392 467.978L266.344 454.624C265.301 452.85 268.326 451.181 271.352 451.703L358.255 401.314C356.69 400.375 356.273 395.784 357.838 394.95L377.242 383.474L372.861 380.97L354.812 391.716L334.677 380.031L203.644 456.189Z" fill="#288067"/>
<path d="M211.051 460.466L218.876 464.952L349.909 388.794L342.085 384.308L211.051 460.466Z" fill="#184E3F"/>
<path d="M359.194 394.115V396.306C360.341 396.514 360.967 396.932 363.889 398.705V396.514C363.054 395.993 360.133 394.115 359.194 394.115Z" fill="#FF8B1F"/>
<path d="M381.624 385.977V388.168L363.889 398.705V396.514L381.624 385.977Z" fill="#FEB42B"/>
<path d="M228.161 470.273V472.463L203.644 458.379V456.189L228.161 470.273Z" fill="#184E3F"/>
<path d="M266.344 454.624C266.534 455.065 266.864 455.432 267.283 455.667L270.308 457.336L247.774 470.481L243.392 467.978L266.344 454.624Z" fill="#FFE480"/>
<path d="M270.308 457.336V459.527L247.774 472.672V470.481L270.308 457.336Z" fill="#FEB42B"/>
<path d="M442.133 322.547L436.812 319.417L436.917 340.283L442.133 343.412V322.547Z" fill="#70BFE6"/>
<path d="M445.889 320.356L440.568 317.331L436.812 319.417L442.133 322.547L445.889 320.356Z" fill="#C5DBFB"/>
<path d="M433.891 327.242L428.571 324.217L428.675 345.082L433.996 348.107L433.891 327.242Z" fill="#70BFE6"/>
<path d="M437.647 325.051L432.326 322.026L428.571 324.216L433.891 327.242L437.647 325.051Z" fill="#C5DBFB"/>
<path d="M433.891 327.242L433.996 348.107L437.751 345.916L437.647 325.051L433.891 327.242Z" fill="#C5DBFB"/>
<path d="M425.65 332.041L420.329 328.911L420.433 349.776L425.754 352.906L425.65 332.041Z" fill="#70BFE6"/>
<path d="M429.405 329.85L424.085 326.825L420.329 328.911L425.65 332.041L429.405 329.85Z" fill="#C5DBFB"/>
<path d="M425.65 332.041L425.754 352.906L429.51 350.715L429.405 329.85L425.65 332.041Z" fill="#C5DBFB"/>
<path d="M417.408 336.735L412.191 333.71V354.575L417.512 357.6L417.408 336.735Z" fill="#70BFE6"/>
<path d="M421.163 334.649L415.947 331.519L412.191 333.71L417.408 336.736L421.163 334.649Z" fill="#C5DBFB"/>
<path d="M417.408 336.736L417.512 357.601L421.268 355.41L421.163 334.649L417.408 336.736Z" fill="#C5DBFB"/>
<path d="M409.166 341.535L403.95 338.509V359.27L409.27 362.4L409.166 341.535Z" fill="#70BFE6"/>
<path d="M412.922 339.344L407.705 336.318L403.95 338.509L409.166 341.535L412.922 339.344Z" fill="#C5DBFB"/>
<path d="M409.166 341.534L409.27 362.399L413.026 360.209L412.922 339.344L409.166 341.534Z" fill="#C5DBFB"/>
<path d="M400.924 346.229L395.708 343.204V364.069L401.029 367.094L400.924 346.229Z" fill="#70BFE6"/>
<path d="M404.784 344.142L399.464 341.013L395.708 343.203L400.924 346.229L404.784 344.142Z" fill="#C5DBFB"/>
<path d="M400.924 346.229L401.028 367.094L404.784 364.904V344.143L400.924 346.229Z" fill="#C5DBFB"/>
<path d="M392.787 351.028L387.466 348.003L387.57 368.763L392.787 371.893V351.028Z" fill="#70BFE6"/>
<path d="M396.542 348.837L391.222 345.812L387.466 348.003L392.787 351.028L396.542 348.837Z" fill="#C5DBFB"/>
<path d="M392.787 351.028V371.893L396.543 369.703V348.837L392.787 351.028Z" fill="#C5DBFB"/>
<path d="M384.545 355.827L379.225 352.697L379.329 373.562L384.545 376.588V355.827Z" fill="#70BFE6"/>
<path d="M388.301 353.636L382.98 350.507L379.225 352.697L384.545 355.827L388.301 353.636Z" fill="#C5DBFB"/>
<path d="M384.545 355.827V376.588L388.301 374.502V353.637L384.545 355.827Z" fill="#C5DBFB"/>
<path d="M195.924 474.237L482.611 307.733V291.354L196.028 457.858L195.924 474.237Z" fill="#3DA9F2"/>
<path d="M37.7662 362.608V364.173L50.0766 362.608L180.38 437.827L196.028 457.858V474.237L210.321 465.995H210.425L225.448 457.128C223.988 455.25 222.84 454.937 215.85 450.868L210.321 442.835L54.4583 352.906L37.7662 362.608Z" fill="#70BFE6"/>
<path d="M18.6744 387.125L14.9186 384.934L15.023 390.672L18.7787 392.863L18.6744 387.125Z" fill="#C5DBFB"/>
<path d="M18.7787 392.863L15.023 390.672L5.00768 396.41L8.76344 398.601L18.7787 392.863Z" fill="#E9F5FB"/>
<path d="M18.6744 377.11L14.9186 374.919L5.00768 380.657L8.76344 382.848L18.6744 377.11Z" fill="#E9F5FB"/>
<path d="M18.6744 365.738L14.9186 363.547V374.919L18.6744 377.11V365.738Z" fill="#C5DBFB"/>
<path d="M3.75577 368.868L0 366.677L0.104364 404.443L3.86007 406.634L3.75577 368.868Z" fill="#C5DBFB"/>
<path d="M29.1069 354.367L25.3512 352.176L0 366.677L3.75577 368.868L29.1069 354.367Z" fill="#C5DBFB"/>
<path d="M29.2114 392.132L3.86018 406.634V368.868L29.2114 354.366V392.132ZM8.76351 382.847L18.6745 377.109V365.738L8.76351 371.476V382.847V382.847ZM8.76351 398.601L18.7788 392.863V387.125L8.86781 392.863V398.601H8.76351Z" fill="#E0EAFB"/>
<path d="M25.3513 356.557L29.1071 354.367L45.6949 352.28L201.453 442.209L206.983 450.242C207.922 450.868 214.703 454.624 215.537 455.354C216.383 456.092 217.09 456.975 217.624 457.962C219.293 460.883 218.98 462.657 218.98 465.369C219.029 465.932 218.929 466.498 218.691 467.011C218.454 467.523 218.085 467.964 217.624 468.29L213.868 470.377H214.181C213.346 471.003 212.095 471.003 210.634 470.168L203.227 465.891L201.975 466.308L206.983 473.611C207.922 474.133 214.703 477.888 215.537 478.619C216.961 479.957 218.005 481.649 218.563 483.522C219.189 485.296 218.98 486.756 218.98 488.634C219.04 489.198 218.945 489.768 218.707 490.282C218.468 490.797 218.093 491.237 217.624 491.555L213.868 493.746L214.181 493.537C213.649 493.881 213.025 494.055 212.391 494.036C211.758 494.018 211.145 493.807 210.634 493.433L203.227 489.156L200.41 489.99V490.929C199.119 491.59 197.865 492.322 196.654 493.12V491.451L183.822 493.016L45.4863 413.206L29.0027 391.924V356.036L25.3513 356.557Z" fill="#C5DBFB"/>
<path d="M25.247 394.115L41.8348 415.397L180.067 495.206L196.654 493.015V490.199L197.698 490.72L203.227 489.051L210.634 493.328C213.138 494.789 215.224 493.641 215.224 490.72V487.799C215.137 486.21 214.675 484.663 213.878 483.286C213.08 481.908 211.969 480.738 210.634 479.87L203.227 475.593L197.698 467.56L203.227 465.786L210.634 470.064C213.138 471.524 215.224 470.377 215.224 467.456V464.639C215.154 463.045 214.699 461.493 213.9 460.112C213.101 458.732 211.981 457.565 210.634 456.71L203.227 452.433L197.698 444.295L41.9391 354.366L25.3513 356.557L25.247 394.115Z" fill="white"/>
<path d="M128.634 456.606C128.682 457.414 128.913 458.201 129.311 458.906C129.709 459.611 130.262 460.216 130.929 460.675C132.285 461.405 133.329 460.779 133.329 459.318V445.965C133.329 442.313 128.634 439.809 128.634 443.252V456.606Z" fill="#C5DBFB"/>
<path d="M118.931 450.972C118.975 451.808 119.215 452.621 119.632 453.346C120.049 454.071 120.631 454.687 121.331 455.145C121.559 455.345 121.843 455.468 122.144 455.499C122.445 455.53 122.748 455.467 123.011 455.318C123.275 455.169 123.485 454.942 123.614 454.668C123.743 454.394 123.784 454.087 123.73 453.789V440.436C123.696 439.612 123.459 438.81 123.041 438.1C122.622 437.391 122.035 436.795 121.331 436.367C120.183 435.637 119.036 436.054 119.036 437.723L118.931 450.972Z" fill="#C5DBFB"/>
<path d="M109.333 445.443C109.381 446.251 109.613 447.038 110.011 447.743C110.408 448.448 110.962 449.053 111.629 449.512C112.985 450.242 114.028 449.616 114.028 448.156V434.802C113.989 433.941 113.729 433.104 113.272 432.373C112.815 431.642 112.177 431.041 111.42 430.629C110.272 430.107 109.333 430.733 109.333 432.089V445.443Z" fill="#C5DBFB"/>
<path d="M99.6313 439.81C99.6657 440.633 99.9026 441.435 100.321 442.145C100.74 442.854 101.327 443.45 102.031 443.878C103.283 444.713 104.326 444.087 104.326 442.522V429.273C104.322 428.455 104.109 427.652 103.707 426.94C103.305 426.228 102.728 425.63 102.031 425.204C100.57 424.474 99.6313 425.204 99.6313 426.56V439.81Z" fill="#C5DBFB"/>
<path d="M89.9289 434.28C89.9721 435.101 90.2128 435.9 90.6305 436.608C91.0483 437.317 91.6307 437.914 92.3284 438.349C93.6846 439.079 94.7279 438.453 94.7279 436.993V423.639C94.6682 422.822 94.4206 422.029 94.0044 421.324C93.5882 420.618 93.0146 420.018 92.3284 419.57C90.8678 418.84 90.0332 419.57 90.0332 420.926L89.9289 434.28Z" fill="#C5DBFB"/>
<path d="M80.3309 428.751C80.3863 429.557 80.6211 430.341 81.0182 431.045C81.4153 431.749 81.9646 432.355 82.6261 432.82C83.9823 433.55 85.0256 432.924 85.0256 431.463V418.11C84.9778 417.302 84.7461 416.515 84.3484 415.81C83.9507 415.105 83.3973 414.5 82.7304 414.041C81.1655 413.311 80.3309 414.041 80.3309 415.397V428.751Z" fill="#C5DBFB"/>
<path d="M70.6287 423.117C70.6719 423.938 70.9126 424.737 71.3303 425.445C71.748 426.154 72.3304 426.751 73.0281 427.186C74.28 427.916 75.3233 427.395 75.3233 425.83V412.476C75.2417 411.665 74.9849 410.88 74.5706 410.178C74.1563 409.476 73.5945 408.871 72.9238 408.407H72.6109C71.4633 407.886 70.5244 408.512 70.5244 409.868L70.6287 423.117Z" fill="#C5DBFB"/>
<path d="M60.9264 417.484C60.9702 418.319 61.2103 419.132 61.6272 419.857C62.0441 420.582 62.6261 421.199 63.3259 421.657C64.5778 422.387 65.6211 421.761 65.6211 420.3V406.947C65.5779 406.126 65.3372 405.327 64.9194 404.619C64.5017 403.91 63.9193 403.313 63.2216 402.878H62.9086C61.761 402.357 60.9264 402.982 60.9264 404.339V417.484Z" fill="#C5DBFB"/>
<path d="M51.3285 411.954C51.3516 412.768 51.5726 413.564 51.9726 414.273C52.3725 414.982 52.9392 415.582 53.6237 416.023C54.9799 416.753 56.0232 416.127 56.0232 414.667V401.313C56.0232 397.662 51.3285 395.158 51.3285 398.601V411.954Z" fill="#C5DBFB"/>
<path d="M130.616 455.771C130.616 457.545 132.077 459.631 133.224 459.944C134.372 460.257 133.329 446.486 133.329 445.964C133.29 445.103 133.029 444.266 132.572 443.535C132.116 442.804 131.478 442.204 130.72 441.791C130.616 442.209 130.616 455.354 130.616 455.771Z" fill="#3DA9F2"/>
<path d="M120.914 450.242C120.963 451.113 121.239 451.957 121.715 452.689C122.191 453.421 122.849 454.016 123.626 454.415C123.73 453.998 123.73 440.852 123.73 440.435C123.73 440.018 122.27 436.575 121.122 436.262C119.975 435.949 120.914 449.72 120.914 450.242Z" fill="#3DA9F2"/>
<path d="M111.316 444.609C111.316 446.382 112.776 448.469 113.924 448.782C115.072 449.095 114.028 435.324 114.028 434.802C113.99 433.941 113.729 433.104 113.272 432.373C112.815 431.642 112.177 431.041 111.42 430.629C111.211 431.046 111.316 444.191 111.316 444.609Z" fill="#3DA9F2"/>
<path d="M101.613 438.975C101.645 439.852 101.901 440.706 102.358 441.455C102.814 442.204 103.456 442.823 104.222 443.252C104.43 442.835 104.326 429.69 104.326 429.273C104.326 428.855 102.761 425.308 101.718 425.1C100.674 424.891 101.613 438.558 101.613 438.975Z" fill="#3DA9F2"/>
<path d="M91.9112 433.445C91.9112 435.323 93.476 437.41 94.6236 437.618C95.7712 437.827 94.7279 424.16 94.7279 423.639C94.6682 422.822 94.4206 422.029 94.0044 421.324C93.5882 420.618 93.0147 420.018 92.3284 419.57H92.0155C91.9111 419.883 91.9112 433.028 91.9112 433.445Z" fill="#3DA9F2"/>
<path d="M82.3133 427.812C82.3133 429.794 83.8782 431.881 84.9215 432.089C85.9647 432.298 85.0258 418.527 85.0258 418.11C85.0258 417.692 83.4609 414.145 82.4176 413.832C81.3744 413.519 82.3133 427.395 82.3133 427.812Z" fill="#3DA9F2"/>
<path d="M72.6109 422.283C72.6109 424.16 74.1758 426.247 75.219 426.456C76.2623 426.664 75.4276 412.998 75.4276 412.476C75.346 411.665 75.0892 410.88 74.6749 410.178C74.2607 409.475 73.6988 408.871 73.0282 408.407H72.7152C72.6109 408.825 72.6109 421.761 72.6109 422.283Z" fill="#3DA9F2"/>
<path d="M62.9087 416.753C62.9578 417.625 63.234 418.469 63.7098 419.201C64.1856 419.933 64.8445 420.528 65.6212 420.926C65.7255 420.509 65.7255 407.364 65.7255 406.947C65.6823 406.126 65.4416 405.327 65.0239 404.619C64.6061 403.91 64.0237 403.313 63.326 402.878H63.0131C62.9087 403.191 62.9087 416.232 62.9087 416.753Z" fill="#3DA9F2"/>
<path d="M53.3106 411.12C53.3166 411.988 53.5636 412.838 54.0241 413.575C54.4845 414.312 55.1404 414.906 55.9187 415.293C56.1274 414.98 56.023 401.835 56.023 401.313C55.9843 400.452 55.7239 399.615 55.2669 398.884C54.81 398.153 54.1721 397.552 53.4149 397.14C53.3106 397.557 53.3106 410.702 53.3106 411.12Z" fill="#3DA9F2"/>
<path d="M175.789 457.753C175.803 458.26 175.945 458.754 176.2 459.192C176.455 459.629 176.816 459.996 177.25 460.257C178.084 460.779 178.71 460.362 178.71 459.423V455.771C178.687 455.267 178.542 454.776 178.287 454.34C178.033 453.904 177.677 453.536 177.25 453.267V453.267C176.519 452.746 175.789 453.163 175.789 454.102V457.753Z" fill="#C5DBFB"/>
<path d="M169.738 454.311C169.762 454.815 169.907 455.306 170.161 455.742C170.415 456.178 170.772 456.546 171.199 456.815C172.033 457.232 172.659 456.919 172.659 455.98V452.329C172.639 451.835 172.507 451.353 172.272 450.919C172.037 450.485 171.705 450.111 171.303 449.825C171.303 449.797 171.292 449.771 171.273 449.751C171.253 449.732 171.227 449.721 171.199 449.721C171.054 449.623 170.884 449.568 170.709 449.562C170.535 449.556 170.362 449.598 170.21 449.685C170.058 449.772 169.933 449.899 169.85 450.053C169.767 450.207 169.728 450.381 169.738 450.555V454.311Z" fill="#C5DBFB"/>
<path d="M163.687 450.763C163.687 453.059 166.609 454.623 166.609 452.537V448.781C166.581 448.29 166.445 447.81 166.211 447.377C165.976 446.945 165.649 446.569 165.252 446.277H165.148C164.418 445.756 163.687 446.173 163.687 447.112V450.763Z" fill="#C5DBFB"/>
<path d="M157.636 447.321C157.636 449.512 160.662 451.181 160.662 448.991V445.339C160.647 444.833 160.506 444.338 160.251 443.901C159.996 443.463 159.635 443.097 159.201 442.835V442.835C158.367 442.314 157.741 442.731 157.741 443.67L157.636 447.321Z" fill="#C5DBFB"/>
<path d="M151.69 443.878C151.69 446.069 154.507 447.738 154.507 445.547V441.791C154.475 441.303 154.326 440.83 154.072 440.412C153.817 439.994 153.465 439.644 153.046 439.392V439.392C152.212 438.975 151.586 439.288 151.586 440.227L151.69 443.878Z" fill="#C5DBFB"/>
<path d="M145.639 436.68V440.331C145.535 442.522 148.56 444.191 148.56 442V438.349C148.537 437.845 148.392 437.354 148.137 436.918C147.883 436.482 147.527 436.114 147.1 435.845V435.845C146.265 435.324 145.639 435.741 145.639 436.68Z" fill="#C5DBFB"/>
<path d="M139.588 433.133V436.888C139.612 437.393 139.757 437.884 140.011 438.32C140.265 438.756 140.621 439.124 141.049 439.392C141.883 439.81 142.509 439.497 142.509 438.558V434.906C142.495 434.4 142.353 433.905 142.098 433.468C141.843 433.031 141.482 432.664 141.049 432.402C140.214 431.881 139.588 432.298 139.588 433.133Z" fill="#C5DBFB"/>
<path d="M133.537 429.69V433.341C133.561 433.86 133.706 434.365 133.959 434.818C134.213 435.271 134.568 435.658 134.998 435.949C135.832 436.367 136.458 435.949 136.458 435.115V431.359C136.435 430.855 136.29 430.364 136.035 429.928C135.781 429.492 135.425 429.124 134.998 428.855V428.855C134.163 428.438 133.537 428.751 133.537 429.69Z" fill="#C5DBFB"/>
<path d="M127.486 426.247V429.898C127.486 432.089 130.407 433.759 130.407 431.568V427.916C130.387 427.423 130.255 426.941 130.02 426.507C129.785 426.073 129.453 425.699 129.051 425.412H128.947C128.217 424.891 127.486 425.308 127.486 426.247Z" fill="#C5DBFB"/>
<path d="M121.435 426.456C121.494 426.963 121.665 427.451 121.936 427.884C122.206 428.317 122.57 428.684 123 428.96C123.731 429.377 124.357 429.064 124.357 428.125V424.369C124.329 423.892 124.192 423.428 123.957 423.012C123.722 422.596 123.394 422.24 123 421.97V421.97C122.166 421.553 121.54 421.865 121.54 422.804L121.435 426.456Z" fill="#C5DBFB"/>
<path d="M115.385 422.908C115.424 423.408 115.576 423.893 115.829 424.327C116.082 424.76 116.429 425.131 116.845 425.412C117.68 425.934 118.41 425.516 118.41 424.577V420.926C118.396 420.42 118.254 419.925 117.999 419.488C117.744 419.05 117.383 418.684 116.95 418.422V418.422C116.115 417.901 115.489 418.318 115.489 419.257L115.385 422.908Z" fill="#C5DBFB"/>
<path d="M109.438 419.466C109.438 421.657 112.359 423.326 112.359 421.135V417.484C112.345 416.978 112.203 416.483 111.948 416.046C111.693 415.608 111.332 415.242 110.898 414.98V414.98C110.064 414.563 109.438 414.98 109.438 415.815V419.466Z" fill="#C5DBFB"/>
<path d="M103.387 416.023C103.427 416.523 103.578 417.008 103.831 417.442C104.084 417.875 104.432 418.246 104.848 418.527C105.578 418.944 106.308 418.631 106.308 417.588V413.937C106.285 413.432 106.14 412.941 105.885 412.505C105.631 412.07 105.275 411.701 104.848 411.433V411.433C104.013 411.016 103.387 411.329 103.387 412.267V416.023Z" fill="#C5DBFB"/>
<path d="M97.336 412.476C97.336 414.667 100.257 416.336 100.257 414.145V410.494C100.243 409.987 100.101 409.493 99.8462 409.055C99.5911 408.618 99.2301 408.252 98.7966 407.99V407.99C97.9619 407.468 97.336 407.886 97.336 408.824V412.476Z" fill="#C5DBFB"/>
<path d="M91.2852 409.033C91.3248 409.534 91.4768 410.019 91.7296 410.452C91.9825 410.885 92.3298 411.256 92.7458 411.537C93.5804 411.954 94.2064 411.642 94.2064 410.703V407.051C94.1799 406.545 94.0451 406.05 93.8112 405.6C93.5772 405.15 93.2495 404.756 92.8501 404.443H92.7458C91.9112 404.026 91.2852 404.339 91.2852 405.278V409.033Z" fill="#C5DBFB"/>
<path d="M85.2344 401.835V405.486C85.2344 407.677 88.1555 409.451 88.1555 407.156V403.504C88.1618 403.006 88.0405 402.514 87.8031 402.076C87.5657 401.638 87.2202 401.267 86.7993 401H86.695C85.9647 400.479 85.2344 400.896 85.2344 401.835Z" fill="#C5DBFB"/>
<path d="M67.186 395.054C67.2004 395.56 67.3417 396.054 67.5969 396.492C67.8521 396.929 68.2129 397.296 68.6465 397.557C69.3768 398.079 70.1071 397.662 70.1071 396.723V393.071C70.0927 392.565 69.9514 392.071 69.6962 391.633C69.441 391.196 69.0801 390.829 68.6465 390.568V390.568C67.8119 390.046 67.186 390.463 67.186 391.402V395.054Z" fill="#C5DBFB"/>
<path d="M61.1352 391.611C61.1352 393.802 64.0563 395.471 64.0563 393.28V389.629C64.0323 389.11 63.8878 388.605 63.6342 388.152C63.3807 387.699 63.0251 387.312 62.5957 387.02V387.02C61.7611 386.603 61.1352 386.916 61.1352 387.855V391.611Z" fill="#C5DBFB"/>
<path d="M55.0842 388.064C55.0986 388.57 55.2399 389.065 55.4951 389.502C55.7502 389.94 56.1112 390.306 56.5448 390.568C57.3794 391.089 58.0053 390.672 58.0053 389.837V386.082C57.9818 385.577 57.8367 385.086 57.5823 384.651C57.328 384.215 56.9721 383.847 56.5448 383.578C55.8145 383.056 55.0842 383.474 55.0842 384.412V388.064Z" fill="#C5DBFB"/>
<path d="M177.25 456.919C177.264 457.425 177.405 457.92 177.66 458.357C177.916 458.794 178.276 459.161 178.71 459.423V455.771C178.687 455.267 178.541 454.776 178.287 454.34C178.033 453.904 177.677 453.536 177.25 453.267V456.919Z" fill="#3DA9F2"/>
<path d="M171.199 453.476C171.239 453.977 171.39 454.462 171.643 454.895C171.896 455.329 172.243 455.7 172.659 455.98V452.329C172.639 451.836 172.507 451.354 172.272 450.92C172.037 450.486 171.705 450.111 171.303 449.825L171.199 453.476Z" fill="#3DA9F2"/>
<path d="M165.252 446.278V450.033C165.272 450.527 165.405 451.009 165.64 451.443C165.875 451.877 166.206 452.251 166.609 452.537V448.782C166.581 448.29 166.445 447.811 166.211 447.378C165.976 446.945 165.649 446.569 165.252 446.278V446.278Z" fill="#3DA9F2"/>
<path d="M159.201 442.835V446.486C159.216 446.993 159.357 447.487 159.612 447.924C159.867 448.362 160.228 448.728 160.662 448.99V445.339C160.647 444.832 160.506 444.338 160.251 443.901C159.996 443.463 159.635 443.097 159.201 442.835V442.835Z" fill="#3DA9F2"/>
<path d="M153.15 439.392V443.043C153.191 443.532 153.333 444.006 153.566 444.437C153.8 444.868 154.12 445.246 154.507 445.547V441.791C154.487 441.313 154.353 440.845 154.118 440.428C153.882 440.011 153.55 439.656 153.15 439.392V439.392Z" fill="#3DA9F2"/>
<path d="M147.099 435.845V439.496C147.114 440.003 147.255 440.497 147.51 440.935C147.766 441.372 148.127 441.739 148.56 442V438.349C148.537 437.845 148.391 437.354 148.137 436.918C147.883 436.482 147.527 436.114 147.099 435.845V435.845Z" fill="#3DA9F2"/>
<path d="M141.049 432.402V436.054C141.088 436.554 141.24 437.039 141.493 437.472C141.746 437.906 142.093 438.277 142.509 438.558V434.906C142.495 434.4 142.353 433.905 142.098 433.468C141.843 433.03 141.482 432.664 141.049 432.402Z" fill="#3DA9F2"/>
<path d="M134.998 432.611C135.029 433.099 135.178 433.573 135.433 433.991C135.687 434.408 136.039 434.758 136.458 435.011V431.359C136.435 430.855 136.29 430.364 136.035 429.928C135.781 429.492 135.425 429.124 134.998 428.855V432.611Z" fill="#3DA9F2"/>
<path d="M128.947 429.064C128.961 429.57 129.103 430.065 129.358 430.502C129.613 430.94 129.974 431.306 130.407 431.568V427.916C130.387 427.423 130.255 426.941 130.02 426.507C129.785 426.073 129.453 425.699 129.051 425.413L128.947 429.064Z" fill="#3DA9F2"/>
<path d="M123 425.621C123.041 426.109 123.183 426.584 123.416 427.015C123.65 427.446 123.97 427.824 124.357 428.125V424.369C124.329 423.892 124.192 423.428 123.957 423.012C123.722 422.596 123.395 422.24 123 421.97V425.621Z" fill="#3DA9F2"/>
<path d="M116.949 422.074C116.964 422.58 117.105 423.075 117.36 423.512C117.616 423.95 117.976 424.316 118.41 424.578V420.926C118.396 420.42 118.254 419.926 117.999 419.488C117.744 419.051 117.383 418.684 116.949 418.423V422.074Z" fill="#3DA9F2"/>
<path d="M110.898 414.98V418.631C110.913 419.138 111.054 419.632 111.309 420.07C111.565 420.507 111.925 420.873 112.359 421.135V417.484C112.345 416.977 112.203 416.483 111.948 416.045C111.693 415.608 111.332 415.242 110.898 414.98V414.98Z" fill="#3DA9F2"/>
<path d="M104.847 411.433V415.188C104.879 415.677 105.028 416.15 105.282 416.568C105.537 416.986 105.889 417.336 106.308 417.588V413.937C106.285 413.432 106.139 412.941 105.885 412.505C105.631 412.069 105.275 411.701 104.847 411.433V411.433Z" fill="#3DA9F2"/>
<path d="M98.7966 407.99V411.642C98.8201 412.146 98.9652 412.637 99.2195 413.073C99.4738 413.509 99.8299 413.877 100.257 414.145V410.494C100.243 409.988 100.101 409.493 99.8463 409.056C99.5911 408.618 99.2301 408.252 98.7966 407.99V407.99Z" fill="#3DA9F2"/>
<path d="M92.8501 404.443V408.199C92.8533 408.695 92.9787 409.184 93.2152 409.62C93.4517 410.057 93.7921 410.429 94.2063 410.703V407.051C94.1798 406.545 94.0451 406.05 93.8112 405.6C93.5772 405.15 93.2495 404.756 92.8501 404.443Z" fill="#3DA9F2"/>
<path d="M86.7992 401V404.652C86.8267 405.143 86.9625 405.622 87.197 406.055C87.4314 406.488 87.7587 406.864 88.1554 407.155V403.504C88.1617 403.006 88.0404 402.514 87.803 402.076C87.5656 401.637 87.2201 401.267 86.7992 401V401Z" fill="#3DA9F2"/>
<path d="M68.6465 394.219C68.6609 394.725 68.8022 395.22 69.0574 395.657C69.3126 396.095 69.6735 396.461 70.1071 396.723V393.071C70.0926 392.565 69.9514 392.071 69.6962 391.633C69.441 391.196 69.08 390.829 68.6465 390.568V394.219Z" fill="#3DA9F2"/>
<path d="M62.5956 390.776C62.61 391.282 62.7513 391.777 63.0065 392.214C63.2617 392.652 63.6226 393.018 64.0562 393.28V389.629C64.0322 389.11 63.8877 388.605 63.6342 388.152C63.3806 387.699 63.025 387.312 62.5956 387.02V390.776Z" fill="#3DA9F2"/>
<path d="M56.5448 383.578V387.229C56.5844 387.729 56.7362 388.214 56.9891 388.648C57.242 389.081 57.5894 389.452 58.0054 389.733V386.082C57.9819 385.577 57.8367 385.086 57.5824 384.65C57.3281 384.214 56.9721 383.846 56.5448 383.578Z" fill="#3DA9F2"/>
<path d="M64.5778 381.283L66.8729 384.308L86.3818 395.576L88.677 395.263V389.942L86.3818 387.021L66.9772 375.754L64.5778 376.067V381.283Z" fill="#C5DBFB"/>
<path d="M103.387 403.4L105.682 406.425L125.191 417.588L127.486 417.379V412.059L125.191 409.033L105.787 397.87L103.387 398.183V403.4Z" fill="#C5DBFB"/>
<path d="M142.196 420.301V425.517L144.491 428.542L163.896 439.705L166.295 439.392V434.176L164 431.15L144.491 419.988L142.196 420.301Z" fill="#C5DBFB"/>
<path d="M69.5854 377.318V379.3L71.8806 382.326L88.6771 392.028V389.942L86.3819 387.02L69.5854 377.318Z" fill="#005995"/>
<path d="M108.29 399.331V401.418L110.69 404.443L127.486 414.145V412.059L125.191 409.033L108.29 399.331Z" fill="#005995"/>
<path d="M147.099 421.448V423.535L149.395 426.56L166.295 436.262V434.176L164 431.15L147.099 421.448Z" fill="#005995"/>
<path d="M382.98 246.285C412.713 263.603 412.505 291.562 382.563 308.88C352.622 326.198 304.214 326.198 274.481 308.88C244.749 291.562 244.957 263.603 274.899 246.285C304.84 228.967 353.247 228.967 382.98 246.285Z" fill="#70BFE6"/>
<path d="M378.39 248.893C405.723 264.75 405.515 290.415 378.077 306.272C350.639 322.13 306.301 322.13 279.072 306.272C251.843 290.415 251.947 264.75 279.385 248.893C306.822 233.035 351.161 233.035 378.39 248.893Z" fill="#005995"/>
<path d="M348.97 263.499L351.057 264.542C355.23 262.768 359.611 261.204 364.202 259.743C373.069 256.926 382.98 259.221 386.11 262.664C385.625 263.565 384.949 264.348 384.128 264.959C392.37 258.387 374.843 252.649 362.845 257.239C358.094 259.033 353.459 261.123 348.97 263.499V263.499Z" fill="#C5DBFB"/>
<path d="M271.352 292.501C269.161 297.613 283.558 302.204 294.721 297.926C299.43 296.113 304.029 294.023 308.492 291.667L306.405 290.624C302.119 292.473 297.73 294.076 293.26 295.423C284.392 298.239 274.481 295.944 271.352 292.501Z" fill="#C5DBFB"/>
<path d="M267.283 270.175C266.24 274.035 271.977 279.252 281.993 279.982C287.162 280.418 292.35 280.592 297.537 280.504C297.122 279.189 297.015 277.797 297.224 276.435C291.575 275.827 285.967 274.886 280.428 273.618C276.046 272.679 273.021 271.01 271.247 269.028C269.874 269.199 268.536 269.587 267.283 270.175V270.175Z" fill="#70BFE6"/>
<path d="M280.428 273.618C285.966 274.887 291.575 275.827 297.224 276.435C297.237 275.866 297.343 275.302 297.537 274.766C292.53 273.931 287.731 272.784 283.036 271.532C273.96 269.028 271.352 262.977 274.377 259.534C265.927 261.517 267.909 270.906 280.428 273.618Z" fill="#C5DBFB"/>
<path d="M266.344 281.547C261.441 286.033 272.708 292.919 285.54 290.832C291.099 290.017 296.603 288.867 302.023 287.389C301.486 286.956 300.996 286.466 300.563 285.929C295.599 286.956 290.584 287.722 285.54 288.224C275.629 289.372 267.387 285.303 266.344 281.547Z" fill="#C5DBFB"/>
<path d="M324.766 250.458C324.06 253.431 323.709 256.478 323.723 259.535C326.081 259.309 328.451 259.239 330.817 259.326C332.049 255.871 333.696 252.578 335.721 249.519C336.76 248.055 338.115 246.843 339.685 245.972C340.984 245.257 342.346 244.663 343.754 244.199C343.292 243.311 342.609 242.556 341.772 242.008C335.095 241.382 326.018 244.72 324.766 250.458Z" fill="#70BFE6"/>
<path d="M335.721 249.519C333.696 252.578 332.049 255.871 330.817 259.326L333.634 259.535C335.28 256.545 337.201 253.716 339.372 251.084C343.754 245.868 354.082 244.303 360.133 246.076C360.632 246.771 360.855 247.626 360.759 248.476C360.863 242.216 349.805 242.321 343.754 244.199C340.624 245.242 337.494 246.911 335.721 249.519Z" fill="#C5DBFB"/>
<path d="M325.184 243.155C322.576 244.824 320.593 247.015 320.385 249.728C320.124 253.114 320.335 256.519 321.011 259.847L323.723 259.534C323.709 256.478 324.06 253.431 324.766 250.458C326.018 244.72 335.095 241.382 341.772 242.008C342.609 242.556 343.292 243.31 343.754 244.198C343.292 243.31 342.609 242.556 341.772 242.008C337.911 239.295 330.296 240.13 325.184 243.155Z" fill="#C5DBFB"/>
<path d="M339.372 251.084C337.201 253.716 335.28 256.545 333.634 259.534C335.916 259.721 338.183 260.069 340.415 260.577C343.84 257.101 347.616 253.989 351.683 251.292C354.487 249.75 357.574 248.792 360.759 248.476C360.856 247.626 360.632 246.77 360.133 246.076C354.082 244.303 343.754 245.868 339.372 251.084Z" fill="#70BFE6"/>
<path d="M310.787 252.753C311.664 255.755 312.926 258.631 314.542 261.308C316.656 260.651 318.819 260.162 321.011 259.847C320.335 256.519 320.124 253.114 320.385 249.728C320.593 247.015 322.575 244.824 325.184 243.155C324.381 242.475 323.462 241.945 322.471 241.59C315.794 242.216 308.909 247.015 310.787 252.753Z" fill="#70BFE6"/>
<path d="M297.955 257.135C300.577 259.849 303.402 262.36 306.405 264.646C308.177 263.664 310.027 262.826 311.934 262.142C309.714 259.211 307.792 256.066 306.196 252.753C305.678 251.587 305.511 250.295 305.715 249.035C305.919 247.776 306.485 246.602 307.344 245.659C306.022 245.038 304.616 244.616 303.171 244.407C297.224 246.181 293.156 252.023 297.955 257.135Z" fill="#70BFE6"/>
<path d="M293.782 257.969C297.098 260.909 300.658 263.561 304.423 265.898L306.405 264.646C303.402 262.36 300.577 259.849 297.955 257.135C293.99 252.858 296.181 248.058 300.458 245.555L303.171 244.407C294.408 243.155 286.374 251.501 293.782 257.969Z" fill="#C5DBFB"/>
<path d="M351.057 264.542C352.625 265.466 354.093 266.55 355.438 267.776C360.863 266.42 366.288 265.168 371.922 264.333C375.986 263.629 380.157 263.843 384.128 264.959C384.949 264.349 385.625 263.565 386.11 262.664C382.98 259.221 373.069 256.926 364.202 259.743C359.611 261.204 355.23 262.768 351.057 264.542Z" fill="#70BFE6"/>
<path d="M286.688 250.667C281.993 253.379 281.263 259.639 288.566 263.603C292.452 265.743 296.458 267.659 300.563 269.341C301.676 268.012 302.976 266.852 304.423 265.898C300.658 263.561 297.098 260.908 293.782 257.969C291.174 255.674 290.443 253.275 290.965 251.084C289.568 250.733 288.126 250.592 286.688 250.667V250.667Z" fill="#70BFE6"/>
<path d="M284.914 265.168C289.504 267.255 294.303 269.132 299.415 270.906L300.563 269.341C296.458 267.659 292.452 265.743 288.565 263.603C281.263 259.639 281.993 253.379 286.688 250.667C277.611 250.98 274.482 260.369 284.914 265.168Z" fill="#C5DBFB"/>
<path d="M274.377 259.534C271.352 262.977 273.96 269.028 283.036 271.532C287.731 272.784 292.53 273.931 297.537 274.766C297.883 273.361 298.523 272.045 299.415 270.906C294.303 269.132 289.504 267.254 284.914 265.168C280.324 263.081 279.385 261.308 278.654 259.117C277.217 259.077 275.78 259.217 274.377 259.534V259.534Z" fill="#70BFE6"/>
<path d="M355.438 267.776C355.976 268.21 356.465 268.699 356.899 269.237C361.863 268.21 366.877 267.443 371.922 266.942C381.833 265.794 390.074 269.863 391.222 273.618C390.289 274.386 389.23 274.986 388.092 275.392C399.359 270.802 385.901 262.038 371.922 264.333C366.288 265.168 360.863 266.42 355.438 267.776Z" fill="#C5DBFB"/>
<path d="M280.637 282.486C286.374 282.59 292.321 282.486 298.059 282.173C297.838 281.633 297.663 281.074 297.537 280.504C292.35 280.592 287.162 280.418 281.993 279.982C271.977 279.252 266.24 274.036 267.283 270.176C260.293 273.514 267.283 282.173 280.637 282.486Z" fill="#C5DBFB"/>
<path d="M359.403 272.992C359.624 273.533 359.798 274.091 359.924 274.661C365.141 274.661 370.357 274.766 375.469 275.183C385.484 275.913 391.222 281.13 390.179 284.99C388.926 285.579 387.588 285.966 386.214 286.137C399.464 283.738 391.326 272.992 376.929 272.679C371.087 272.61 365.245 272.714 359.403 272.992Z" fill="#C5DBFB"/>
<path d="M266.344 281.547C267.387 285.303 275.629 289.371 285.54 288.224C290.584 287.722 295.599 286.956 300.563 285.929C299.563 284.795 298.721 283.532 298.059 282.173C292.321 282.486 286.375 282.59 280.637 282.486C276.725 282.442 272.873 281.515 269.369 279.773C268.243 280.135 267.21 280.74 266.344 281.547V281.547Z" fill="#70BFE6"/>
<path d="M298.059 282.173C305.258 298.448 343.754 300.847 356.899 285.824C359.716 282.59 361.072 278.73 359.924 274.661C356.377 261.621 330.922 255.152 311.934 262.142C302.545 265.585 294.199 273.096 298.059 282.173Z" fill="#70BFE6"/>
<path d="M298.059 282.173C305.258 298.448 343.754 300.847 356.899 285.824C359.716 282.59 361.072 278.73 359.924 274.661C356.377 261.621 330.922 255.152 311.934 262.142C302.545 265.585 294.199 273.096 298.059 282.173Z" fill="#E0EAFB"/>
<path d="M303.38 281.339C309.326 294.901 341.146 296.779 351.996 284.364C353.184 283.189 354.041 281.722 354.481 280.11C354.92 278.498 354.927 276.799 354.499 275.183C351.578 264.438 330.609 259.013 314.856 264.751C307.031 267.672 300.146 273.827 303.38 281.339Z" fill="white"/>
<path d="M359.924 280.4C359.561 281.83 358.924 283.177 358.046 284.364C362.987 285.953 367.83 287.834 372.548 289.998C376.199 291.667 378.181 293.858 378.807 296.048C380.245 296.081 381.681 295.941 383.085 295.631C386.11 292.188 383.502 286.137 374.425 283.634C369.731 282.382 364.932 281.234 359.924 280.4Z" fill="#70BFE6"/>
<path d="M358.046 284.364L356.899 285.824C361.004 287.507 365.01 289.422 368.896 291.562C376.199 295.527 375.469 301.786 370.774 304.499C369.335 304.567 367.895 304.426 366.497 304.082C379.329 306.585 384.128 295.318 372.548 289.998C367.83 287.834 362.987 285.953 358.046 284.364V284.364Z" fill="#C5DBFB"/>
<path d="M356.899 285.824C355.786 287.153 354.486 288.313 353.039 289.267C356.821 291.665 360.414 294.351 363.784 297.3C366.288 299.491 367.018 301.891 366.497 304.081C367.895 304.426 369.336 304.567 370.774 304.499C375.469 301.786 376.199 295.527 368.896 291.562C365.01 289.422 361.004 287.506 356.899 285.824Z" fill="#70BFE6"/>
<path d="M317.046 294.588C313.622 298.065 309.846 301.176 305.779 303.873C302.975 305.416 299.888 306.374 296.703 306.69C296.634 307.538 296.855 308.383 297.329 309.089C303.38 310.863 313.812 309.402 318.09 304.082C320.296 301.476 322.219 298.643 323.828 295.631C321.545 295.445 319.279 295.096 317.046 294.588V294.588Z" fill="#70BFE6"/>
<path d="M345.632 293.023C347.961 295.973 349.923 299.196 351.474 302.621C352.039 303.752 352.242 305.03 352.055 306.28C351.869 307.531 351.301 308.694 350.431 309.611C351.648 310.197 352.951 310.585 354.291 310.758C360.237 308.985 364.306 303.143 359.507 298.031C356.884 295.317 354.059 292.806 351.057 290.519C349.309 291.479 347.496 292.315 345.632 293.023V293.023Z" fill="#70BFE6"/>
<path d="M353.039 289.267L351.057 290.519C354.059 292.806 356.884 295.317 359.507 298.031C363.471 302.308 361.28 307.107 357.003 309.611L354.291 310.759C352.951 310.585 351.648 310.198 350.431 309.611C358.359 313.054 365.349 308.776 366.497 304.082C367.018 301.891 366.288 299.491 363.784 297.301C360.414 294.351 356.821 291.666 353.039 289.267V289.267Z" fill="#C5DBFB"/>
<path d="M297.329 309.089C300.771 313.992 317.046 312.845 321.741 305.646C323.766 302.588 325.412 299.295 326.644 295.84L323.827 295.631C322.219 298.643 320.296 301.475 318.09 304.081C317.139 305.238 315.969 306.195 314.647 306.898C309.535 309.819 302.128 310.55 297.329 309.089Z" fill="#C5DBFB"/>
<path d="M326.644 295.84C325.412 299.295 323.766 302.588 321.741 305.646C320.702 307.11 319.347 308.323 317.777 309.193C316.478 309.909 315.116 310.503 313.708 310.967C314.202 311.832 314.879 312.58 315.69 313.158C322.367 313.784 331.443 310.445 332.8 304.707C333.422 301.722 333.736 298.681 333.739 295.631C331.381 295.857 329.011 295.927 326.644 295.84V295.84Z" fill="#70BFE6"/>
<path d="M336.555 295.318C337.145 298.657 337.32 302.056 337.077 305.438C336.868 308.15 334.886 310.341 332.278 311.906C333.149 312.73 334.178 313.369 335.303 313.784C341.98 313.158 348.866 308.359 346.988 302.621C346.05 299.558 344.754 296.617 343.128 293.858C340.975 294.504 338.779 294.992 336.555 295.318V295.318Z" fill="#70BFE6"/>
<path d="M343.128 293.858C344.754 296.617 346.05 299.558 346.988 302.621C348.135 306.272 345.84 309.506 342.293 311.489C340.141 312.715 337.764 313.495 335.303 313.784L333.843 313.054C341.354 317.435 355.23 310.55 351.474 302.621C349.923 299.196 347.961 295.973 345.632 293.023L343.128 293.858Z" fill="#C5DBFB"/>
<path d="M350.326 252.127C346.821 254.7 343.509 257.524 340.415 260.578L343.023 261.204C346.314 258.593 349.763 256.189 353.352 254.005C360.237 250.041 370.67 250.458 375.364 253.171C375.459 254.069 375.196 254.968 374.634 255.674C379.12 248.059 359.402 245.555 350.326 252.127Z" fill="#C5DBFB"/>
<path d="M306.196 252.753C307.792 256.066 309.714 259.211 311.934 262.142L314.542 261.308C312.926 258.63 311.664 255.755 310.787 252.753C309.535 249.101 311.934 245.867 315.481 243.781C317.634 242.572 320.014 241.826 322.471 241.59C314.751 238.773 302.754 245.346 306.196 252.753Z" fill="#C5DBFB"/>
<path d="M352.934 254.214C349.498 256.349 346.188 258.683 343.023 261.203C345.068 261.796 347.058 262.564 348.97 263.499C353.459 261.123 358.094 259.033 362.845 257.239C366.611 255.852 370.637 255.317 374.634 255.674C375.197 254.968 375.459 254.068 375.364 253.17C370.67 250.458 359.924 250.041 352.934 254.214Z" fill="#70BFE6"/>
<path d="M356.899 269.237C357.898 270.37 358.741 271.634 359.402 272.993C365.245 272.714 371.087 272.61 376.929 272.68C380.808 272.721 384.626 273.649 388.092 275.392C389.24 275.008 390.303 274.406 391.222 273.619C390.074 269.863 381.833 265.794 371.922 266.942C366.877 267.444 361.863 268.21 356.899 269.237Z" fill="#70BFE6"/>
<path d="M359.924 274.662C360.34 275.976 360.447 277.368 360.237 278.73C365.94 279.495 371.574 280.434 377.138 281.547C381.415 282.486 384.441 284.155 386.214 286.137C387.588 285.966 388.926 285.579 390.179 284.99C391.222 281.13 385.484 275.914 375.469 275.183C370.357 274.766 365.14 274.662 359.924 274.662Z" fill="#70BFE6"/>
<path d="M360.237 278.73C360.235 279.301 360.129 279.867 359.924 280.399C364.932 281.234 369.731 282.382 374.425 283.633C383.502 286.137 386.11 292.188 383.085 295.631C381.681 295.941 380.245 296.081 378.807 296.048C392.474 296.153 390.805 284.468 377.138 281.547C371.644 280.434 366.01 279.495 360.237 278.73Z" fill="#C5DBFB"/>
<path d="M273.438 290.206C272.561 290.784 271.844 291.573 271.352 292.501C274.482 295.944 284.393 298.239 293.26 295.423C297.73 294.076 302.119 292.473 306.405 290.623C304.82 289.726 303.349 288.64 302.024 287.389C296.603 288.867 291.099 290.017 285.54 290.832C281.511 291.542 277.373 291.328 273.438 290.206V290.206Z" fill="#70BFE6"/>
<path d="M282.827 299.491C282.284 300.207 282.024 301.099 282.097 301.995C286.896 304.707 297.537 305.125 304.527 300.952C307.964 298.816 311.273 296.482 314.438 293.962C312.393 293.37 310.404 292.602 308.492 291.667C304.028 294.023 299.43 296.113 294.72 297.926C290.917 299.305 286.858 299.839 282.827 299.491Z" fill="#70BFE6"/>
<path d="M282.097 301.995C282.723 307.316 298.789 309.089 307.135 303.038C310.665 300.497 313.979 297.671 317.046 294.588L314.438 293.962C311.148 296.573 307.698 298.977 304.11 301.16C297.224 305.125 286.792 304.707 282.097 301.995Z" fill="#C5DBFB"/>
<path d="M333.738 295.631C333.736 298.681 333.422 301.722 332.799 304.707C332.391 305.963 331.739 307.126 330.879 308.129C330.02 309.131 328.971 309.954 327.792 310.55C324.099 312.581 319.892 313.488 315.69 313.158C321.532 317.226 336.451 313.158 337.077 305.438C337.32 302.056 337.145 298.657 336.555 295.318L333.738 295.631Z" fill="#C5DBFB"/>
<path d="M236.298 473.402V471.211C236.298 469.646 233.69 468.394 230.873 469.02C229.889 469.237 228.964 469.664 228.161 470.272V472.463C229.332 471.565 230.754 471.054 232.229 471.003C234.524 471.003 236.298 472.15 236.298 473.402Z" fill="#154336"/>
<path d="M238.176 476.115V478.306L233.899 475.802V473.611L238.176 476.115Z" fill="#184E3F"/>
<path d="M247.774 470.481V472.672L238.176 478.306V476.115L247.774 470.481Z" fill="#154336"/>
<path d="M210.899 353.905C210.899 353.905 207.44 365.699 210.899 371.832C214.359 377.965 228.198 375.292 231.028 375.292C233.859 375.292 242.194 381.582 246.282 382.368C252.887 383.469 263.266 384.098 265.782 379.066C266.227 378.052 266.402 376.94 266.292 375.838C266.182 374.737 265.79 373.682 265.153 372.776C262.48 368.687 256.976 370.888 250.528 368.687L230.242 344.784L210.899 353.905Z" fill="#C1E3F4"/>
<path d="M210.899 350.917C210.899 350.917 207.44 362.711 210.899 369.001C214.359 375.292 228.198 372.461 231.028 372.461C233.859 372.461 242.194 378.751 246.282 379.38C250.371 380.009 264.996 383.312 265.782 376.235C266.569 369.159 259.492 371.046 250.528 365.856C241.565 360.667 230.242 341.953 230.242 341.953L210.899 350.917Z" fill="#E9F5FB"/>
<path d="M210.585 352.018C210.585 352.018 210.27 357.05 222.694 357.837C235.117 358.623 236.061 350.131 236.061 350.131L210.585 352.018Z" fill="#C1E3F4"/>
<path d="M236.061 350.131C236.061 350.131 232.129 355.478 222.222 355.478C212.315 355.478 210.113 352.018 210.113 352.018C208.698 321.667 205.71 313.175 202.722 277.163C199.514 265.493 197.097 253.619 195.488 241.623C191.557 214.103 188.254 191.143 196.903 179.978H197.061C198.003 178.774 199.115 177.715 200.363 176.832C203.194 174.631 211.371 170.07 229.613 176.361C232.444 209.699 232.916 224.639 232.601 231.873C232.601 231.873 232.286 246.183 233.387 260.022C233.659 263.181 233.447 266.363 232.758 269.458C231.657 274.962 230.085 312.704 236.061 350.131Z" fill="#232323"/>
<path d="M236.061 350.131C236.061 350.131 232.129 355.477 222.222 355.477C212.315 355.477 210.113 352.018 210.113 352.018C203.823 307.199 202.565 295.877 202.722 277.163C199.514 265.492 197.097 253.618 195.488 241.622C191.557 214.102 188.254 191.142 196.903 179.977H197.061C205.71 173.372 218.762 178.719 218.762 178.719C218.762 178.719 227.254 180.134 218.762 202.151C210.27 224.167 210.27 242.566 210.899 256.562C211.528 270.558 213.73 290.844 213.73 290.844C213.73 290.844 214.516 339.909 215.774 347.615C217.032 355.32 236.061 350.131 236.061 350.131Z" fill="#111111"/>
<path d="M144.851 341.482C144.851 341.482 156.016 373.248 156.016 376.707C155.91 377.843 155.563 378.942 154.998 379.932C154.434 380.923 153.665 381.782 152.742 382.451C151.819 383.121 150.764 383.586 149.648 383.816C148.531 384.046 147.378 384.035 146.266 383.784C140.762 382.369 133.056 380.167 128.968 369.788C124.879 359.409 124.722 344.312 124.722 341.639C124.722 338.965 144.851 341.482 144.851 341.482Z" fill="#C1E3F4"/>
<path d="M144.851 337.865C144.851 337.865 156.016 369.788 156.016 373.248C155.914 374.379 155.568 375.476 155.002 376.461C154.435 377.446 153.662 378.297 152.736 378.954C151.809 379.612 150.751 380.061 149.634 380.27C148.517 380.48 147.368 380.444 146.266 380.167C140.762 378.909 133.056 376.707 128.968 366.328C124.879 355.949 124.722 340.853 124.722 338.179C124.722 335.506 144.851 337.865 144.851 337.865Z" fill="#E9F5FB"/>
<path d="M124.25 339.437C124.25 339.437 130.383 346.671 136.673 345.885C142.964 345.098 145.637 338.965 145.637 338.965L124.25 339.437Z" fill="#C1E3F4"/>
<path d="M214.516 170.07C216.283 177.379 215.245 185.086 211.605 191.666C207.965 198.247 201.99 203.222 194.859 205.61C165.452 267.727 164.036 266.312 158.532 281.409C151.843 299.728 148.126 319 147.524 338.494C138.403 344.155 127.867 342.897 121.577 337.393C121.891 324.026 123.464 317.893 124.722 307.199C125.665 299.808 125.193 290.53 134.629 264.425C137.46 256.562 139.347 253.102 142.492 239.421C149.883 207.812 140.919 238.163 157.903 176.832C168.125 171.328 168.597 172.901 199.891 163.78C224.895 156.86 228.984 163.78 228.984 163.78L214.516 170.07Z" fill="#232323"/>
<path d="M214.831 183.909H214.516C208.54 188.312 201.149 186.425 195.96 186.425C190.77 186.425 185.581 187.526 178.032 193.03L141.548 243.667C141.863 242.094 142.177 240.522 142.492 239.421C146.109 223.538 146.266 219.135 148.468 211.272C149.726 206.397 153.185 193.973 155.073 187.211L157.903 176.832C159.619 175.815 161.406 174.921 163.25 174.159C167.968 172.272 172.843 171.171 183.694 168.34L192.815 172.743C200.363 176.518 207.597 180.135 214.831 183.909Z" fill="#111111"/>
<path d="M313.903 84.2069C313.676 85.051 313.303 85.8492 312.803 86.5658C308.714 92.6989 302.424 93.4851 295.032 93.3279L289.057 96.3158C288.585 93.6424 285.911 80.9044 285.754 80.4327L287.641 79.1746C293.46 75.5577 291.887 72.5698 293.774 69.8964C294.36 68.4451 294.679 66.9003 294.718 65.3359C294.718 64.5496 293.46 62.977 293.932 61.5617C294.086 61.1607 294.321 60.7956 294.621 60.4889C294.922 60.1822 295.283 59.9403 295.68 59.7783C296.078 59.6162 296.505 59.5373 296.935 59.5465C297.364 59.5557 297.787 59.6529 298.178 59.8319C299.593 60.9327 299.593 62.977 299.75 63.1342C299.907 63.2915 300.694 67.5375 300.694 67.5375V70.3681C302.276 68.6985 304.29 67.5009 306.512 66.9085C308.714 66.1222 309.5 66.594 309.815 66.9085C310.795 68.0388 311.301 69.503 311.23 70.9972C312.96 70.9972 313.274 73.356 312.96 74.9286C313.613 75.6033 313.979 76.5056 313.979 77.4448C313.979 78.3839 313.613 79.2862 312.96 79.9609C313.397 80.5674 313.707 81.2567 313.869 81.9867C314.031 82.7167 314.043 83.4722 313.903 84.2069V84.2069Z" fill="#FFCFCD"/>
<path d="M307.613 71.626C311.073 71.3115 310.444 71.4687 307.299 72.0977C306.258 72.2491 305.249 72.5678 304.311 73.0413V73.0413L303.682 73.3558L302.581 73.8276C301.008 74.4566 300.694 76.501 302.424 77.13L303.996 76.5009C305.759 76.0837 307.544 75.7687 309.343 75.5574C306.84 75.9469 304.405 76.6881 302.109 77.759C301.934 77.9679 301.805 78.2123 301.734 78.4754C301.662 78.7385 301.648 79.0141 301.692 79.2831C301.737 79.5522 301.84 79.8083 301.993 80.0338C302.147 80.2594 302.347 80.449 302.581 80.5897L309.972 80.2752L303.053 81.0615C302.677 81.2335 302.376 81.5342 302.203 81.9091C302.03 82.284 301.996 82.7085 302.109 83.1058C302.109 83.4203 302.266 86.4082 303.839 86.88C304.451 86.8972 305.051 86.7035 305.538 86.3313C306.024 85.9592 306.368 85.4312 306.512 84.8357C309.972 84.0494 309.815 84.5211 308.085 85.9364C306.355 87.3518 306.355 86.88 306.512 88.1381C306.67 89.3962 304.94 87.5091 304.468 87.9808C303.996 88.4526 303.996 89.2389 303.682 89.2389C303.367 89.2389 303.367 88.7671 303.21 87.3518C302.665 87.0609 302.187 86.6584 301.808 86.1707C301.429 85.6831 301.156 85.121 301.008 84.5211C300.694 83.8921 300.851 83.8921 300.694 83.7348C300.536 83.5776 299.75 83.1058 298.02 83.7348C296.29 84.3639 295.347 83.8921 297.706 80.1179C299.276 77.6399 299.942 74.6958 299.593 71.7832L301.323 71.1542C301.48 71.3114 301.48 71.626 301.637 72.0977C301.795 72.5695 302.895 73.1985 304.153 72.884L307.613 71.626Z" fill="#ED7D88"/>
<path d="M295.19 92.6706C291.302 94.9123 287.619 97.4908 284.182 100.376C279.778 103.836 276.319 106.038 270.343 110.283C266.39 112.586 262.163 114.382 257.762 115.63C255.47 116.421 252.978 116.421 250.686 115.63C244.867 113.429 243.294 111.542 238.891 106.195C234.488 100.848 233.23 99.4327 231.815 96.2875L249.585 84.0214L256.661 91.727C257.114 92.2583 257.731 92.6239 258.414 92.7662C259.097 92.9086 259.808 92.8196 260.436 92.5133C271.129 88.1101 283.395 81.1907 286.855 79.7754C287.799 80.2472 295.504 91.727 295.19 92.6706Z" fill="#FFCFCD"/>
<path d="M295.033 93.3279C291.074 95.1832 287.417 97.6216 284.182 100.562C279.779 104.022 276.319 106.223 270.343 110.469C266.301 112.854 261.966 114.704 257.448 115.973C253.202 117.231 249.585 115.973 245.811 113.457C242.037 110.941 234.016 100.719 231.186 96.7876L231.815 96.4731L237.162 92.8562C239.552 93.2016 241.991 92.8337 244.173 91.7986C246.355 90.7635 248.183 89.1073 249.428 87.0376C248.902 89.85 248.058 92.5934 246.912 95.2151C245.025 99.3038 243.609 100.405 243.924 102.449C244.238 104.493 249.585 108.425 251.787 107.167C253.988 105.909 252.101 103.235 254.932 98.832L257.605 95.0578C257.133 96.9449 255.404 104.336 258.549 106.695C261.694 109.054 266.097 106.066 274.432 101.348C282.767 96.6304 287.799 94.1142 290.472 80.9045C290.787 81.5336 291.259 82.3199 291.573 83.1061C290.987 84.9564 291.007 86.9453 291.629 88.7836C292.251 90.6219 293.444 92.2139 295.033 93.3279V93.3279Z" fill="url(#paint0_linear)"/>
<path d="M250.686 83.4204C250.529 87.0374 248.641 89.7107 245.339 93.9567C242.037 98.2027 239.049 101.82 234.174 103.235C228.984 97.1019 223.637 88.2954 221.75 80.118C219.863 71.9406 219.549 56.8438 221.593 51.9688C224.752 53.4812 227.8 55.2154 230.714 57.1583C235.746 60.3034 250.843 82.9486 250.686 83.4204Z" fill="white"/>
<path d="M239.835 100.09C238.23 101.581 236.288 102.661 234.174 103.235C228.984 97.1019 223.637 88.2954 221.75 80.118C223.952 75.7148 225.524 72.0978 229.928 64.7067C229.928 64.7067 238.105 69.2672 237.633 83.4204C237.319 94.4285 239.049 98.0454 239.835 100.09Z" fill="#AAD9F0"/>
<path d="M234.803 80.2755C231.657 104.651 225.21 130.598 224.895 151.042C224.581 160.949 218.29 165.824 202.25 168.183C190.456 169.913 171.427 167.397 161.206 165.195C161.206 165.195 165.766 157.647 165.766 153.086C165.766 148.526 151.141 116.602 149.411 111.727C145.008 99.461 143.278 82.9489 149.569 75.5577C155.859 68.1666 160.262 67.223 164.351 65.3359C174.101 60.9327 183.222 53.6988 196.432 52.4407C209.641 51.1827 218.133 48.9811 224.581 53.5416C231.028 58.102 236.061 70.5255 234.803 80.2755Z" fill="white"/>
<path d="M206.182 53.8559H203.823C206.182 60.4607 204.609 67.2228 200.52 70.368C192.815 76.6583 176.617 68.7954 177.561 59.3599C173 61.0897 174.573 59.8317 171.27 61.7188C172.533 65.8516 175.064 69.4825 178.504 72.0978C179.147 72.6709 179.83 73.1964 180.549 73.6704C184.304 76.3395 188.699 77.9672 193.286 78.3882C199.734 78.7027 203.823 76.0293 206.496 70.2107C208.22 66.3628 208.661 62.0624 207.754 57.9446C208.797 58.9139 209.697 60.0257 210.428 61.247C215.145 68.4809 218.291 77.1301 216.246 96.3156L201.307 99.1463C197.532 99.9326 185.424 103.392 181.178 104.808C181.178 99.7753 181.02 94.2713 181.02 88.1382C181.02 88.1382 169.698 67.2228 162.778 64.8639L157.903 68.3236C161.683 70.5443 165.038 73.4197 167.811 76.8156C171.459 81.5726 173.937 87.1213 175.045 93.0132C176.373 97.445 176.905 102.077 176.617 106.695L174.415 108.739C173.551 114.998 171.913 121.125 169.54 126.981C167.452 123.202 165.816 119.191 164.665 115.029C163.264 109.799 162.577 104.404 162.621 98.989L149.411 111.727C151.141 116.602 165.609 146.796 165.766 153.086C165.766 155.602 173.629 153.715 176.932 151.513C183.222 147.425 181.807 136.574 181.335 113.3C189.512 111.412 217.976 104.179 220.649 100.404C223.323 96.6301 220.964 78.7027 220.492 70.5253C219.706 55.4285 207.754 51.1825 206.182 53.8559Z" fill="#AAD9F0"/>
<path d="M228.827 112.513L227.569 101.977C227.569 101.977 224.895 115.973 224.581 117.388C225.02 121.473 225.756 125.52 226.782 129.497C227.569 123.993 228.984 115.659 229.927 110.155L228.827 112.513Z" fill="#AAD9F0"/>
<path d="M175.673 146.638C175.202 150.57 174.887 154.029 174.258 154.344C173.629 154.658 160.577 153.557 161.206 143.965L162.149 141.606C162.778 143.493 163.722 145.537 164.036 146.324C164.351 147.11 168.754 151.67 170.798 151.041C172.843 150.412 173.157 143.65 174.101 132.328L176.145 109.682L177.56 110.154C179.448 116.602 176.302 142.235 175.673 146.638Z" fill="#111111"/>
<path d="M176.145 109.683C190.928 103.392 209.484 98.0456 226.311 96.9448L228.041 97.8884C192.815 107.796 204.295 104.965 177.561 110.155L176.145 109.683Z" fill="#111111"/>
<path d="M224.581 154.344C222.986 158.689 220.187 162.49 216.511 165.303C212.835 168.116 208.434 169.824 203.823 170.227V170.227C187.94 171.957 164.351 165.509 159.633 164.251C160.105 160.792 160.419 146.481 161.206 143.965C163.407 151.671 169.54 153.558 172.057 151.985C174.573 150.413 173.944 148.211 174.101 147.11C174.415 142.078 175.831 128.554 177.561 110.154C193.705 103.645 210.709 99.5133 228.041 97.8883C227.883 125.409 227.411 139.247 224.581 154.344Z" fill="#232323"/>
<path d="M225.367 149.627C225.053 151.199 224.895 152.772 224.581 154.344C222.986 158.689 220.187 162.491 216.511 165.303C212.835 168.116 208.434 169.824 203.823 170.227V170.227C187.94 171.957 164.351 165.51 159.633 164.252C160.105 160.792 160.419 146.481 161.206 143.965C163.407 151.671 169.54 153.558 172.057 151.985C174.573 150.413 173.944 148.211 174.101 147.11C174.415 142.078 175.831 128.554 177.561 110.155C183.694 107.639 181.807 108.11 187.94 108.425C188.273 111.039 188.22 113.689 187.782 116.288C187.311 118.175 186.682 119.59 184.794 120.062C184.48 128.082 184.323 134.844 184.48 140.191C184.48 148.368 184.008 155.288 198.476 159.848C203.376 161.689 208.758 161.8 213.73 160.163C218.796 158.239 222.951 154.477 225.367 149.627V149.627Z" fill="#111111"/>
<path d="M227.254 131.542C225.974 124.598 224.347 117.722 222.379 110.941V110.941C221.608 111.149 220.8 111.186 220.012 111.05C219.225 110.914 218.476 110.609 217.819 110.154C215.46 108.425 215.145 103.864 217.347 99.1464L222.065 98.5173L228.041 97.8883C227.883 106.852 227.726 122.578 227.254 131.542Z" fill="#111111"/>
<path d="M188.097 115.501C186.681 120.062 181.649 118.018 182.907 112.199C181.964 89.2393 167.968 67.3804 158.847 66.9086C157.534 67.431 156.429 68.3703 155.702 69.582C155.649 68.447 155.865 67.3157 156.331 66.2795C157.317 64.611 158.809 63.3 160.59 62.5365C162.371 61.7731 164.35 61.5969 166.238 62.0336C172.843 64.078 189.355 86.0941 188.411 111.727C188.668 112.99 188.559 114.299 188.097 115.501V115.501Z" fill="#232323"/>
<path d="M185.738 117.86C182.278 118.646 180.548 116.445 180.863 112.828C180.863 112.828 180.706 111.727 180.706 111.412C180.706 111.098 179.605 92.6986 171.742 79.3317C169.695 75.9319 167.151 72.8575 164.194 70.2106C162.776 68.8993 161.042 67.9782 159.161 67.5373L155.702 69.5816C155.539 68.4415 155.76 67.2797 156.331 66.2792C157.683 65.781 159.147 65.6643 160.561 65.9416C161.976 66.219 163.287 66.8797 164.351 67.8518C167.024 69.8961 182.75 84.993 183.065 111.412C183.113 111.685 183.057 111.966 182.907 112.199C182.436 114.872 183.065 118.174 185.738 117.86Z" fill="#111111"/>
<path d="M186.682 112.041H186.21C185.755 111.99 185.298 112.105 184.922 112.365C184.546 112.625 184.277 113.013 184.165 113.457C184.008 114.086 184.165 114.558 184.165 114.4C184.165 114.243 184.794 115.658 185.266 115.658H185.738C187.94 116.445 188.883 112.513 186.682 112.041Z" fill="#AAD9F0"/>
<path d="M187.94 113.3C188.254 115.659 185.266 116.76 184.795 114.401C184.323 112.042 187.468 110.941 187.94 113.3Z" fill="#E9F5FB"/>
<path d="M218.762 112.671C208.822 112.47 198.988 114.74 190.141 119.276C189.827 119.433 189.512 119.905 189.041 120.062V133.429H190.613C190.456 141.292 190.456 149.312 190.456 149.312C204.924 149.155 217.033 143.808 219.391 141.921C219.706 119.905 219.863 126.352 218.762 112.671Z" fill="#111111"/>
<path d="M218.919 141.449C210.739 145.655 201.697 147.915 192.5 148.054C192.5 146.796 192.5 121.32 192.657 120.062C200.632 115.826 209.581 113.765 218.605 114.086C218.762 118.332 218.762 136.259 218.919 141.449Z" fill="#232323"/>
<path d="M218.762 126.509C210.499 130.337 201.591 132.578 192.5 133.114C192.5 132.485 192.5 120.691 192.657 120.062C200.632 115.826 209.581 113.765 218.605 114.086C218.762 117.388 218.762 125.723 218.762 126.509Z" fill="#3D3D3D"/>
<path d="M220.178 124.779C210.879 129.024 200.829 131.376 190.613 131.699V119.275C199.689 114.426 209.896 112.091 220.178 112.513V124.779Z" fill="#111111"/>
<path d="M191.871 119.905C200.239 115.632 209.525 113.472 218.919 113.614C219.077 116.13 219.077 119.905 219.077 123.993C210.428 127.826 201.158 130.064 191.714 130.598C191.714 129.497 191.871 121.005 191.871 119.905Z" fill="#232323"/>
<path d="M224.895 107.324C222.536 111.57 217.976 108.582 220.335 103.235C223.795 80.4325 214.202 56.372 205.395 54.0131C204.012 54.3173 202.752 55.0294 201.778 56.0574C201.832 54.9441 202.277 53.8856 203.036 53.0695C205.395 49.7671 210.742 49.2953 213.415 50.7107C219.706 54.0131 231.657 78.8599 225.839 103.707C225.82 104.971 225.496 106.211 224.895 107.324V107.324Z" fill="#232323"/>
<path d="M222.065 109.211C218.448 109.211 217.19 106.852 218.133 103.235C218.133 103.235 218.29 102.292 218.29 101.977C218.29 101.663 220.807 83.2633 215.774 68.6382C214.346 64.9962 212.443 61.5591 210.113 58.4164C208.717 56.5452 206.804 55.1239 204.609 54.3278C204.137 54.6423 202.25 54.0132 203.036 53.0697C204.448 52.7968 205.909 52.9331 207.246 53.4625C208.584 53.9918 209.742 54.8922 210.585 56.0576C212.786 58.5737 225.367 76.5012 220.492 102.449C220.502 102.72 220.448 102.989 220.335 103.235C219.234 105.594 219.391 109.054 222.065 109.211Z" fill="#232323"/>
<path d="M224.109 103.707H223.48C223.284 103.632 223.075 103.597 222.865 103.604C222.656 103.611 222.449 103.66 222.259 103.748C222.068 103.836 221.897 103.961 221.756 104.116C221.615 104.271 221.506 104.453 221.436 104.65C221.265 104.939 221.158 105.261 221.121 105.594C221.126 105.895 221.218 106.189 221.385 106.44C221.552 106.691 221.788 106.889 222.065 107.009L222.536 107.324C224.423 108.11 226.153 104.493 224.109 103.707Z" fill="#AAD9F0"/>
<path d="M225.053 105.279C225.053 107.638 221.75 108.11 221.75 105.751C221.75 103.392 225.053 102.763 225.053 105.279Z" fill="#E9F5FB"/>
<path d="M70.6249 114.872C69.2096 115.973 67.3225 115.029 65.4354 114.4L63.0765 116.602C67.637 118.017 67.008 118.017 70.6249 114.872Z" fill="#380832"/>
<path d="M67.008 97.8884C65.7499 98.9892 63.7056 98.0457 61.9757 97.4166L59.4596 99.6182C64.1773 101.034 63.391 101.034 67.008 97.8884Z" fill="#380832"/>
<path d="M56 82.6343L58.3589 80.4326L69.2097 84.0496L66.8508 86.2512L56 82.6343Z" fill="#380832"/>
<path d="M160.419 120.691L157.903 122.735C159.79 125.723 163.722 128.082 165.609 126.352L167.968 124.15C166.238 125.88 162.149 123.678 160.419 120.691Z" fill="#380832"/>
<path d="M66.8508 86.251L155.859 115.187C156.96 120.533 156.96 121.162 157.903 122.735L68.4234 93.6421L66.8508 86.251Z" fill="#FFE480"/>
<path d="M157.903 122.735L160.42 120.691C159.319 119.118 159.319 118.017 158.218 112.985L155.859 115.187C156.803 120.062 156.96 121.163 157.903 122.735Z" fill="#FF8B1F"/>
<path d="M66.8508 86.2513L69.2097 84.0497L158.218 112.985L155.859 115.187L66.8508 86.2513Z" fill="#FEB42B"/>
<path d="M278.049 186.582L280.408 184.38L285.44 208.755L283.081 210.8L278.049 186.582Z" fill="#369E80"/>
<path d="M273.331 174.473L270.815 176.517C269.085 178.09 270.5 181.864 273.016 184.223C274.472 185.415 276.201 186.226 278.049 186.582L280.408 184.38L278.363 183.751C274.117 182.493 270.972 176.517 273.331 174.473Z" fill="#380832"/>
<path d="M166.238 125.408C166.399 124.736 166.399 124.036 166.238 123.364L165.137 118.175L255.089 147.582L256.662 154.973L166.238 125.408Z" fill="#FFE480"/>
<path d="M165.137 118.175L167.653 116.13L257.605 145.38L255.089 147.582L165.137 118.175Z" fill="#FEB42B"/>
<path d="M269.714 157.489L267.355 159.534C265.625 161.106 266.883 165.352 270.343 167.868C271.574 168.717 272.966 169.305 274.432 169.598L276.791 167.554C274.629 167.01 272.667 165.865 271.129 164.251C268.928 161.735 268.299 158.59 269.714 157.489Z" fill="#380832"/>
<path d="M270.972 152.614L273.331 150.57L274.904 157.804L272.387 160.006L270.972 152.614Z" fill="#369E80"/>
<path d="M57.5726 89.8682L56 82.6344L66.8508 86.2513L68.4234 93.6425L157.903 122.735C160.262 126.667 165.137 128.397 166.238 125.409L256.662 154.973L255.089 147.582L270.972 152.614L272.388 160.006L270.343 159.219C267.67 158.433 266.097 159.848 266.726 162.522C267.055 163.984 267.746 165.34 268.735 166.467C269.724 167.593 270.98 168.454 272.388 168.969L274.432 169.598L276.004 176.832L273.96 176.203C271.287 175.417 269.714 176.832 270.186 179.505C270.596 180.931 271.316 182.248 272.295 183.363C273.274 184.477 274.487 185.362 275.847 185.953L278.049 186.582L283.081 210.8L68.1089 140.82L63.0766 116.602L65.121 117.231C67.7944 118.175 69.367 116.602 68.8952 113.929C68.5024 112.49 67.7685 111.167 66.7556 110.072C65.7427 108.977 64.4807 108.142 63.0766 107.638L61.0323 106.852L59.4597 99.6183L61.6613 100.247C64.1774 101.191 65.9073 99.6183 65.2782 96.9449C64.913 95.517 64.2072 94.1989 63.2213 93.1034C62.2353 92.0079 60.9986 91.1676 59.6169 90.6545L57.5726 89.8682Z" fill="url(#paint1_linear)"/>
<path d="M84.4636 136.731C84.3064 136.26 84.6209 135.945 85.2499 136.102L92.1693 138.304C92.4939 138.392 92.7857 138.573 93.0092 138.824C93.2326 139.076 93.3779 139.387 93.4274 139.719L94.2136 142.864C94.2136 143.493 93.8991 143.808 93.2701 143.651L86.3507 141.292C86.0598 141.19 85.7955 141.025 85.5777 140.807C85.3598 140.589 85.194 140.325 85.0927 140.034L84.4636 136.731Z" fill="#FFE480"/>
<path d="M173.315 158.275C173.157 157.646 173.629 157.332 174.101 157.489L177.246 158.59C177.548 158.717 177.817 158.91 178.035 159.155C178.253 159.4 178.413 159.69 178.504 160.005L179.919 167.082C180.077 167.711 179.762 168.025 179.133 167.868L176.145 166.924C175.829 166.82 175.547 166.635 175.326 166.386C175.105 166.137 174.954 165.835 174.887 165.509L173.315 158.275Z" fill="#FFE480"/>
<path d="M191.871 171.8C191.714 171.171 192.028 170.856 192.657 171.014L199.577 173.372C199.868 173.474 200.132 173.64 200.35 173.857C200.568 174.075 200.734 174.34 200.835 174.631L201.464 177.933C201.621 178.405 201.307 178.719 200.678 178.562L193.758 176.36C193.442 176.256 193.16 176.07 192.939 175.822C192.718 175.573 192.567 175.271 192.5 174.945L191.871 171.8Z" fill="#FFE480"/>
<path d="M168.911 137.36C168.911 136.731 169.226 136.417 169.855 136.731L172.843 137.675C173.159 137.779 173.441 137.965 173.662 138.213C173.883 138.462 174.035 138.764 174.101 139.09L175.674 146.324C175.674 146.796 175.359 147.11 174.887 146.953L171.742 146.009C171.426 145.905 171.144 145.72 170.923 145.471C170.702 145.222 170.55 144.92 170.484 144.594L168.911 137.36Z" fill="#FFE480"/>
<path d="M233.545 185.324C233.461 185.22 233.423 185.087 233.437 184.954C233.452 184.821 233.519 184.7 233.623 184.616C233.727 184.533 233.861 184.495 233.993 184.509C234.126 184.524 234.247 184.591 234.331 184.695L241.407 186.897C241.709 187.024 241.979 187.217 242.196 187.462C242.414 187.707 242.574 187.997 242.666 188.312L243.295 191.457C243.452 192.086 242.98 192.401 242.508 192.244L235.432 189.885C235.13 189.757 234.86 189.564 234.643 189.319C234.425 189.074 234.265 188.784 234.174 188.469L233.545 185.324Z" fill="#FFE480"/>
<path d="M253.359 184.38C253.202 183.751 253.516 183.437 254.145 183.594L257.133 184.538C257.449 184.642 257.732 184.828 257.953 185.076C258.174 185.325 258.325 185.627 258.391 185.953L259.964 193.187C259.964 193.816 259.649 194.13 259.178 193.973L256.032 192.872C255.717 192.768 255.434 192.582 255.213 192.334C254.992 192.085 254.841 191.783 254.774 191.457L253.359 184.38Z" fill="#FFE480"/>
<path d="M248.956 163.465C248.798 162.836 249.113 162.521 249.742 162.678L252.73 163.622C253.359 163.937 253.988 164.565 253.988 165.037L255.561 172.271C255.718 172.9 255.246 173.215 254.774 173.057L251.629 171.957C251.07 171.705 250.623 171.257 250.371 170.699L248.956 163.465Z" fill="#FFE480"/>
<path d="M255.089 147.582L257.605 145.38L273.331 150.57L270.972 152.614L255.089 147.582Z" fill="#380832"/>
<path d="M75.4998 105.437C75.0281 105.594 74.8708 106.38 75.0281 107.167L79.9031 130.755C80.0999 131.59 80.5066 132.36 81.0846 132.993C81.6625 133.626 82.3926 134.101 83.2055 134.372L127.395 148.84C128.181 148.997 128.81 148.997 129.125 148.683L131.484 146.481C131.713 146.263 131.878 145.987 131.961 145.682C132.044 145.377 132.042 145.055 131.956 144.751C126.609 119.118 127.081 120.376 125.823 118.961C125.28 118.315 124.574 117.826 123.778 117.546C77.7015 102.606 78.8023 102.449 77.8587 103.392L75.3426 105.437H75.4998Z" fill="#70BFE6"/>
<path d="M75.0282 107.167C74.7136 105.594 75.6572 104.808 77.0725 105.28L121.419 119.747C122.196 120.053 122.887 120.541 123.435 121.171C123.982 121.801 124.37 122.553 124.565 123.364L129.597 146.953C129.911 148.368 128.968 149.312 127.395 148.84L83.2056 134.372C82.3927 134.101 81.6626 133.626 81.0847 132.993C80.5067 132.36 80.1 131.59 79.9032 130.755L75.0282 107.167Z" fill="white"/>
<path d="M137.931 125.723C137.46 125.88 137.145 126.666 137.302 127.453L142.335 151.042C142.53 151.853 142.917 152.605 143.465 153.235C144.012 153.864 144.703 154.353 145.48 154.658L159.004 159.062C159.286 159.164 159.588 159.203 159.887 159.176C160.186 159.149 160.475 159.056 160.734 158.904L163.093 156.703C163.247 156.565 163.369 156.395 163.451 156.205C163.532 156.015 163.571 155.809 163.565 155.602C163.565 155.13 158.69 131.384 158.218 130.598C157.989 130.074 157.669 129.595 157.274 129.183C156.016 127.767 155.387 127.767 141.863 123.364C141.569 123.284 141.262 123.271 140.962 123.326C140.663 123.38 140.38 123.501 140.133 123.679L137.774 125.723H137.931Z" fill="#052440"/>
<path d="M137.302 127.453C136.988 125.88 137.931 125.094 139.504 125.566L152.871 129.969C153.663 130.276 154.374 130.763 154.947 131.39C155.52 132.018 155.94 132.769 156.173 133.586L161.048 157.175C161.363 158.59 160.419 159.534 159.004 159.062L145.48 154.659C144.703 154.353 144.012 153.865 143.465 153.235C142.917 152.605 142.53 151.853 142.335 151.042L137.302 127.453Z" fill="#005995"/>
<path d="M189.355 142.393C189.069 142.604 188.855 142.899 188.742 143.237C188.63 143.574 188.624 143.939 188.726 144.28L193.758 167.711C193.954 168.541 194.341 169.314 194.886 169.969C195.432 170.624 196.123 171.143 196.904 171.485L210.27 175.731C211.529 176.203 212 175.574 212 175.574L214.516 173.372C214.831 173.215 214.831 172.743 214.831 172.272C214.831 171.8 209.956 148.211 209.641 147.425C209.327 146.639 208.698 145.852 208.698 146.01C208.698 146.167 206.811 144.594 193.287 140.191C193.015 140.044 192.706 139.981 192.398 140.009C192.09 140.037 191.798 140.155 191.557 140.348L189.198 142.55C189.198 142.393 189.198 142.393 189.355 142.393Z" fill="#052440"/>
<path d="M188.726 144.279C188.411 142.707 189.355 141.763 190.927 142.392L204.294 146.638C205.057 146.965 205.737 147.46 206.281 148.086C206.826 148.713 207.222 149.454 207.44 150.255L212.472 173.844C212.786 175.417 211.843 176.203 210.27 175.731L196.903 171.485C196.123 171.143 195.432 170.623 194.886 169.968C194.34 169.313 193.954 168.541 193.758 167.711L188.726 144.279Z" fill="#005995"/>
<path d="M220.964 152.771C220.691 152.957 220.483 153.224 220.37 153.535C220.257 153.845 220.245 154.183 220.335 154.501L225.367 178.09C225.562 178.901 225.95 179.654 226.497 180.283C227.045 180.913 227.736 181.401 228.512 181.707L242.037 186.11C243.137 186.425 243.609 185.953 243.609 185.953L246.125 183.751C246.28 183.613 246.402 183.443 246.483 183.253C246.565 183.063 246.604 182.857 246.597 182.651C246.597 182.336 241.565 158.433 241.25 157.804C241.05 157.219 240.728 156.683 240.307 156.231C239.049 154.816 238.42 154.973 224.895 150.57C224.624 150.423 224.314 150.36 224.007 150.388C223.699 150.416 223.407 150.534 223.166 150.727L220.807 152.771H220.964Z" fill="#052440"/>
<path d="M220.335 154.501C220.02 153.086 220.964 152.143 222.536 152.614L235.903 157.018C236.696 157.325 237.406 157.811 237.979 158.439C238.552 159.066 238.972 159.818 239.206 160.634L244.081 184.223C244.395 185.796 243.452 186.582 242.036 186.11L228.512 181.707C227.736 181.402 227.045 180.913 226.497 180.284C225.95 179.654 225.562 178.902 225.367 178.09L220.335 154.501Z" fill="#005995"/>
<path d="M179.605 177.147C177.823 178.867 175.745 180.252 173.472 181.235C169.383 183.28 168.911 185.167 153.5 181.707L148.153 180.292C148.153 180.292 154.915 164.251 156.331 164.251H156.488C157.194 164.538 157.797 165.031 158.218 165.667C158.301 165.667 158.381 165.7 158.44 165.759C158.499 165.818 158.532 165.898 158.532 165.981L159.476 166.453C160.105 166.61 161.835 165.981 163.722 163.78C165.609 161.578 165.295 161.106 166.395 160.634C167.496 160.163 167.968 160.163 168.754 160.792C169.54 161.421 169.226 166.138 168.282 168.34C168.014 168.936 167.855 169.575 167.811 170.227C167.968 171.8 170.17 172.743 171.742 174.159C173.315 175.574 172.214 174.63 173.786 175.259L179.605 177.147Z" fill="#FFCFCD"/>
<path d="M159.004 167.396C159.682 168.842 159.976 170.437 159.857 172.029C159.737 173.621 159.21 175.155 158.324 176.483C157.439 177.812 156.225 178.889 154.802 179.611C153.378 180.333 151.792 180.676 150.198 180.606C145.637 177.304 140.133 174.001 136.359 171.8C128.024 167.239 124.879 166.767 118.431 162.207C111.984 157.646 103.649 147.425 104.278 140.82C104.907 134.215 112.141 126.666 115.444 122.263C118.746 117.86 123.778 108.267 133.528 98.6745C135.132 96.1862 136.501 93.5539 137.617 90.8116C142.492 80.5898 147.367 76.6583 150.669 76.0293C165.923 78.2309 169.226 90.4971 159.79 107.009C157.482 111.094 154.381 114.676 150.669 117.545V117.545C147.052 124.779 139.032 138.618 131.169 140.82L132.427 141.921L134.629 143.965C150.512 158.275 141.391 155.287 159.004 167.396Z" fill="#FFCFCD"/>
<path d="M131.169 168.969C119.532 164.566 104.907 154.658 104.278 140.82C108.052 134.372 113.556 154.344 131.169 168.969Z" fill="url(#paint2_linear)"/>
<path d="M153.185 163.15L152.871 166.61C151.571 168.727 149.831 170.538 147.769 171.922C145.707 173.306 143.37 174.23 140.919 174.63C140.919 174.589 140.903 174.549 140.873 174.519C140.844 174.49 140.804 174.473 140.762 174.473C142.492 173.215 146.581 170.384 147.21 165.667C147.839 160.949 145.165 157.489 141.548 152.929C135.258 144.909 125.351 138.933 123.621 138.461H123.464C123.306 138.146 128.496 138.304 131.956 135.63C134.107 133.915 135.516 131.437 135.887 128.711C136.044 125.408 134 123.836 131.798 119.59C129.597 115.344 126.923 105.908 128.339 105.122C129.754 104.336 131.956 106.38 141.234 118.175C144.331 117.493 147.52 117.333 150.669 117.703V117.703C147.052 124.937 139.032 138.775 131.169 140.977L132.427 142.078C149.883 157.646 142.649 155.13 153.185 163.15Z" fill="url(#paint3_linear)"/>
<path d="M160.42 173.373C159.149 176.869 156.703 179.815 153.5 181.707L148.153 180.292C148.625 178.877 154.915 164.252 156.488 164.252C157.13 164.873 157.813 165.451 158.532 165.981L159.476 166.453C160.262 166.453 160.577 165.824 161.049 165.824C161.52 165.824 161.363 167.711 161.363 168.498C161.261 170.157 160.944 171.795 160.42 173.373V173.373Z" fill="url(#paint4_linear)"/>
<path d="M152.714 177.776C151.26 178.82 149.673 179.667 147.996 180.292C146.311 180.02 144.727 179.31 143.402 178.234C142.078 177.157 141.059 175.752 140.448 174.159C142.354 173.772 144.169 173.025 145.794 171.957C149.254 169.441 150.827 164.566 150.984 160.949C151.141 160.949 157.117 161.578 158.69 165.352C160.262 169.126 155.544 175.731 152.714 177.776Z" fill="#052440"/>
<path d="M158.532 170.228C157.204 173.161 155.212 175.745 152.714 177.776C150.042 176.318 147.689 174.339 145.794 171.957C148.31 169.964 149.992 167.105 150.512 163.937C153.853 165.005 156.7 167.237 158.532 170.228V170.228Z" fill="#005995"/>
<path d="M163.879 102.291C159.319 111.412 156.488 109.84 150.827 119.904C150.361 121.123 149.467 122.13 148.311 122.735C142.964 124.936 134.472 115.029 133.843 114.243C131.112 111.059 129.029 107.374 127.71 103.392C132.428 95.2146 142.492 79.3316 150.04 73.513C152.52 71.5779 155.149 69.8426 157.903 68.3235C160.262 69.8961 167.339 74.9283 168.754 83.1058C170.17 91.2832 166.553 96.7873 163.879 102.291Z" fill="white"/>
<path d="M204.452 69.2674C201.936 74.4569 198.633 76.5012 193.758 76.5012C188.947 76.3322 184.316 74.6234 180.549 71.6263L179.919 70.9972C176.741 68.334 174.348 64.8543 173 60.9327C176.617 58.7311 179.133 55.5859 178.976 51.3399C178.819 50.7109 178.504 49.9246 178.347 49.1383C188.411 56.3722 192.028 50.0819 200.363 51.4972C203.194 51.969 205.081 56.0577 205.71 58.8883H205.553C206.378 62.3725 205.99 66.0339 204.452 69.2674Z" fill="url(#paint5_linear)"/>
<path d="M205.867 60.6185C204.452 66.437 201.936 76.5015 195.96 76.187C193.601 76.0298 191.557 72.8846 191.242 70.8403C190.927 68.7959 191.399 64.2354 194.702 60.933C198.004 57.6305 201.936 59.3604 204.294 54.9572C204.88 56.2238 205.354 57.5393 205.71 58.8886H205.553C205.747 59.4453 205.853 60.029 205.867 60.6185V60.6185Z" fill="#FFCFCD"/>
<path d="M204.452 69.2674C203.753 70.7469 202.854 72.1228 201.778 73.3561C200.354 74.7755 198.553 75.7578 196.589 76.1868V76.1868C188.883 77.9166 178.032 72.2553 174.101 63.6061C173.802 62.6886 173.434 61.7949 173 60.9327C174.623 59.9294 176.059 58.6524 177.246 57.1585C179.133 67.6948 193.129 74.4569 199.105 69.5819C205.081 64.7069 203.823 57.1585 200.363 51.4972C203.508 52.1262 204.766 55.9004 205.71 58.8884H205.553C206.306 62.3767 205.92 66.0148 204.452 69.2674V69.2674Z" fill="#ED7D88"/>
<path d="M211.686 46.3074C211.272 48.7536 210.088 51.0037 208.306 52.7294C206.524 54.4551 204.237 55.5661 201.778 55.9002C190.928 57.7873 174.415 50.2389 172.843 41.2751C171.27 32.3114 189.512 13.5977 192.186 11.7106C194.859 9.82348 206.653 12.8114 206.653 12.8114C206.653 12.8114 214.831 31.3679 211.686 46.3074Z" fill="#FFCFCD"/>
<path d="M201.778 55.9001C190.928 57.7872 174.415 50.2388 172.843 41.2751C172.371 38.2872 174.258 33.8839 177.089 29.4807L183.379 31.5251C183.379 37.3437 184.794 46.3074 188.726 50.7106C192.657 55.1138 199.734 55.9001 201.778 55.9001Z" fill="url(#paint6_linear)"/>
<path d="M198.476 21.5894C198.81 22.5695 199.447 23.4179 200.295 24.0116C201.143 24.6054 202.159 24.9137 203.194 24.8918C201.084 25.6704 198.833 25.992 196.589 25.8354C192.186 25.5208 190.613 23.4765 188.569 24.5773C186.524 25.6781 185.895 30.3958 186.053 32.4402C186.21 34.4845 186.682 34.9563 186.682 37.6297C186.682 40.3031 186.524 42.8192 185.895 42.8192C185.266 42.8192 184.952 42.1902 184.008 38.8878C183.065 35.5854 179.762 35.2708 178.661 38.5733C177.561 41.8757 177.561 45.6499 178.819 51.1539C178.662 51.1539 178.504 51.154 178.504 50.9967C178.386 50.6727 178.165 50.3965 177.875 50.2104C173.236 47.3823 169.563 43.2155 167.339 38.2588C165.59 34.6212 164.625 30.6563 164.508 26.6217C163.858 21.6045 164.734 16.5078 167.024 11.9966C172.843 1.30303 190.77 -2.62843 198.948 1.7748L200.206 2.56109C201.262 2.96279 202.265 3.49083 203.194 4.13368C206.182 6.49255 206.496 8.69419 208.698 9.16596C210.899 9.63774 211.371 8.2224 212.315 8.85143C213.258 9.48046 212.787 16.0853 209.484 19.2305C208.082 20.6581 206.291 21.6426 204.334 22.0619C202.377 22.4813 200.34 22.317 198.476 21.5894V21.5894Z" fill="#222222"/>
<path d="M182.121 29.924C183.53 32.6932 184.181 35.7857 184.008 38.8878C184.047 38.4843 183.988 38.0775 183.835 37.7019C183.683 37.3263 183.442 36.993 183.133 36.7305C182.824 36.4679 182.457 36.284 182.061 36.1941C181.666 36.1043 181.255 36.1112 180.863 36.2144C180.114 36.5746 179.466 37.1149 178.976 37.7869V37.7869C178.427 38.8067 178.105 39.9334 178.032 41.0894C177.406 44.4797 177.789 47.9791 179.133 51.1539H178.819C178.662 51.1539 178.504 51.1539 178.504 50.9967C172.843 48.0088 169.855 43.7628 167.339 38.2587C165.59 34.6211 164.625 30.6563 164.508 26.6216C163.858 21.6045 164.734 16.5078 167.024 11.9966C173 0.988502 191.714 -2.94297 200.049 2.40382H200.206C191.242 2.24656 182.593 4.91996 179.133 8.85142C178.661 9.48045 173.944 15.4563 175.831 20.9603C177.718 26.4644 179.92 25.3635 182.121 29.924Z" fill="#222222"/>
<path d="M158.532 281.566C155.418 290.07 152.947 298.796 151.141 307.671C149.07 317.878 147.861 328.241 147.524 338.651C142.522 341.809 136.522 342.987 130.698 341.953C128.451 341.389 126.285 340.544 124.25 339.437C126.766 340.223 131.327 339.437 138.56 331.574C150.827 318.05 149.254 299.336 158.532 281.566Z" fill="#3D3D3D"/>
<g style="mix-blend-mode:multiply">
<path d="M508.928 186.957L428.041 142.272C425.846 139.565 424.437 136.307 423.967 132.854C422.631 123.503 406.133 117.024 390.369 120.431L400.923 126.509L407.001 127.11L389.768 137.196L375.608 128.98C372.068 134.591 374.873 140.469 381.486 144.209C385.293 146.48 390.436 147.95 396.247 148.351C402.054 148.608 407.824 149.413 413.48 150.755L491.094 197.577C496.371 200.65 504.653 200.783 509.796 197.844C514.939 194.905 514.405 190.03 508.928 186.957Z" fill="#AAD9F0"/>
</g>
<path d="M400.923 115.755L400.856 122.836L390.303 116.691L390.369 109.677L400.923 115.755Z" fill="url(#paint7_linear)"/>
<path d="M407.001 116.423V123.437L400.856 122.836L400.923 115.755L407.001 116.423Z" fill="url(#paint8_linear)"/>
<path d="M506.456 188.56C506.456 180.946 506.523 181.48 506.39 181.013C506.372 180.747 506.279 180.492 506.122 180.278L505.989 180.144C504.586 177.94 500.578 176.938 497.306 177.406C494.033 177.873 492.563 179.009 492.563 181.079V188.093C492.563 187.024 493.298 185.621 495.703 184.82C500.512 183.217 506.456 185.488 506.456 188.56Z" fill="url(#paint9_linear)"/>
<path d="M490.893 186.69L413.48 140.001C399.053 136.461 391.305 139.2 381.486 133.522C377.612 131.251 374.005 127.645 374.072 123.169C374.005 130.65 373.671 132.053 375.341 134.858C376.865 137.249 378.982 139.205 381.486 140.536L382.421 141.07C383.837 141.813 385.311 142.439 386.829 142.94C389.888 143.894 393.05 144.477 396.247 144.677C402.054 144.934 407.824 145.74 413.48 147.081V147.081L490.893 193.77C499.243 198.846 513.269 195.707 513.269 189.095V182.081C513.269 188.627 499.309 191.833 490.893 186.69Z" fill="#70BFE6"/>
<path d="M508.928 176.27L428.041 131.585C425.302 127.845 424.367 124.973 423.967 122.101C422.631 112.749 406.133 106.337 390.369 109.677L400.923 115.755L407.001 116.423L389.768 126.442L375.608 118.227C372.068 123.837 374.873 129.715 381.486 133.522C391.371 139.2 398.852 136.394 413.48 140.001L491.094 186.823C496.371 189.896 504.653 190.096 509.796 187.091C514.939 184.085 514.405 179.342 508.928 176.27ZM504.586 184.218C501.981 185.755 497.573 185.621 494.768 184.018C491.962 182.415 491.495 180.01 494.434 178.341C497.372 176.671 501.38 176.871 504.185 178.474C506.991 180.077 507.057 182.749 504.586 184.218V184.218Z" fill="#E9F5FB"/>
<path d="M497.773 174.4C492.964 174.601 488.155 176.738 487.621 180.278C415.551 137.597 418.556 139.801 417.888 138.398C416.152 134.992 423.365 132.454 427.774 134.992L497.773 174.4Z" fill="#70BFE6"/>
<path d="M494.968 174.734C491.828 175.402 488.088 177.139 487.621 180.278C415.55 137.597 418.556 139.801 417.888 138.398C419.091 135.927 424.501 135.059 427.774 136.929L494.968 174.734Z" fill="#AAD9F0"/>
<path d="M420.76 125.24C420.426 125.641 420.093 125.841 418.556 126.71L415.951 128.179C415.236 128.417 414.497 128.573 413.747 128.647V128.647C411.543 128.713 409.606 127.845 409.272 126.643C409.272 126.643 409.339 125.774 409.339 125.708H409.406C409.699 125.165 410.171 124.74 410.741 124.505V124.505C410.741 124.439 413.948 122.568 414.014 122.568C414.784 122.179 415.624 121.948 416.485 121.891C417.346 121.833 418.209 121.95 419.024 122.234C420.961 122.635 421.829 124.038 420.76 125.24Z" fill="#3DA9F2"/>
<path d="M420.76 125.24C420.426 125.641 420.093 125.841 418.556 126.71L415.951 128.179L415.617 127.912L414.949 127.177C414.014 125.908 413.146 123.437 414.148 122.234H414.215C414.245 122.167 414.291 122.107 414.349 122.06C414.407 122.014 414.476 121.982 414.549 121.967H414.615C416.152 121.099 416.219 120.965 416.686 120.965C418.289 120.765 420.36 122.969 420.76 125.24Z" fill="#E9F5FB"/>
<path d="M419.291 126.309C418.289 126.843 416.552 127.912 415.951 128.179L415.617 127.912L414.949 127.177C414.014 125.841 413.146 123.437 414.148 122.234H414.215L414.482 122.034H414.615C416.352 121.032 418.89 123.704 419.291 126.309Z" fill="#70BFE6"/>
<path d="M418.556 126.71L415.951 128.179C415.236 128.417 414.497 128.574 413.747 128.647H412.879C412.187 127.773 411.728 126.739 411.543 125.641C411.466 125.287 411.461 124.92 411.53 124.564C411.599 124.208 411.74 123.87 411.944 123.57V123.57C412.011 123.503 411.944 123.503 412.01 123.503L412.344 123.303C412.938 122.916 413.564 122.581 414.215 122.301C415.751 121.7 418.155 124.105 418.556 126.71Z" fill="#E9F5FB"/>
<path d="M417.087 127.578L415.951 128.179C415.236 128.417 414.497 128.574 413.747 128.647H412.879C412.174 127.781 411.713 126.744 411.543 125.641C411.466 125.287 411.461 124.92 411.53 124.564C411.599 124.208 411.74 123.87 411.944 123.57V123.57C412.011 123.503 411.944 123.503 412.01 123.503L412.344 123.303C412.561 123.195 412.797 123.133 413.039 123.122C413.28 123.11 413.522 123.149 413.747 123.236V123.236C415.217 123.57 416.82 125.641 417.087 127.578Z" fill="#70BFE6"/>
<path d="M416.352 127.978L415.951 128.179C415.236 128.417 414.497 128.573 413.747 128.646V128.646C411.543 128.713 409.606 127.845 409.272 126.643C409.272 126.643 409.339 125.774 409.339 125.707H409.406C409.442 125.477 409.526 125.258 409.653 125.062C409.779 124.866 409.945 124.7 410.14 124.572V124.572C411.543 123.77 411.677 123.637 412.011 123.57H412.211C412.733 123.519 413.256 123.661 413.68 123.971V123.971C414.373 124.424 414.966 125.013 415.425 125.702C415.884 126.391 416.2 127.165 416.352 127.978V127.978Z" fill="#E9F5FB"/>
<path d="M414.816 128.513L413.747 128.647H413.346C411.343 128.647 409.606 127.778 409.272 126.643C409.223 126.268 409.27 125.887 409.411 125.536C409.551 125.185 409.779 124.876 410.074 124.639C410.074 124.621 410.081 124.604 410.093 124.592C410.106 124.579 410.123 124.572 410.14 124.572H410.207C410.627 124.379 411.106 124.356 411.543 124.505V124.505C412.946 124.839 414.415 126.643 414.816 128.513Z" fill="#70BFE6"/>
<path d="M413.346 128.58C411.343 128.58 409.606 127.711 409.272 126.576V126.242H409.406C409.826 126.049 410.304 126.025 410.741 126.175C411.867 126.643 412.791 127.495 413.346 128.58Z" fill="#3DA9F2"/>
<g style="mix-blend-mode:multiply">
<path d="M469.52 114.687C468.818 114.578 468.1 114.67 467.449 114.954C467.315 113.819 466.915 112.616 465.913 112.082C463.642 110.746 463.575 110.679 463.174 110.546C462.826 110.455 462.463 110.432 462.106 110.479C461.905 108.809 461.104 107.807 460.436 107.473C457.831 106.004 457.831 105.937 457.43 105.803C455.092 105.069 452.42 107.139 450.884 109.009L386.028 71.2043H385.894V76.2806L448.68 112.883C447.478 116.023 447.545 119.296 449.615 120.431L452.087 121.901L451.886 121.767C452.336 122.061 452.848 122.244 453.382 122.302C453.916 122.36 454.456 122.291 454.959 122.101C455.185 122.748 455.635 123.293 456.228 123.637L458.432 124.973C458.432 124.938 458.418 124.904 458.393 124.879C458.368 124.854 458.334 124.839 458.298 124.839C459.3 125.574 460.703 125.374 461.838 124.773C461.874 125.237 462.012 125.688 462.243 126.092C462.474 126.496 462.792 126.844 463.174 127.11L491.027 143.942C492.805 146.039 495.222 147.493 497.907 148.084C501.714 148.551 506.723 145.679 507.525 141.471C507.709 140.494 507.59 139.485 507.184 138.577C506.778 137.67 506.105 136.908 505.254 136.395C497.706 131.786 469.92 114.754 469.52 114.687Z" fill="#AAD9F0"/>
</g>
<path d="M462.84 114.887C462.84 116.49 461.17 118.294 460.168 117.692L385.36 74.0763V69H385.56L462.439 113.885C462.707 114.019 462.84 114.353 462.84 114.887Z" fill="#AAD9F0"/>
<path d="M462.039 113.685L460.369 115.689C387.831 73.5419 392.507 76.3473 391.104 75.2118C389.702 74.0763 388.833 73.0076 385.56 69.0668L462.039 113.685Z" fill="#E9F5FB"/>
<path d="M461.304 113.952C462.172 113.485 462.84 113.885 462.84 114.887C462.812 115.431 462.659 115.961 462.392 116.436C462.126 116.911 461.754 117.318 461.304 117.626C460.436 118.093 459.701 117.693 459.701 116.691C459.742 116.142 459.907 115.61 460.185 115.136C460.463 114.661 460.846 114.256 461.304 113.952V113.952Z" fill="#E9F5FB"/>
<path d="M459.968 105.336C457.363 103.866 457.296 103.799 456.896 103.666C455.493 103.198 453.957 103.799 452.754 104.668C447.745 108.007 445.608 116.223 449.081 118.294L451.619 119.763L451.419 119.629C455.025 122.168 461.705 115.288 461.705 109.143C461.705 106.137 459.968 105.336 459.968 105.336Z" fill="#111111"/>
<path d="M455.76 105.736C459.033 103.866 461.705 105.402 461.705 109.143C461.705 112.883 459.033 117.425 455.827 119.362C452.621 121.299 449.882 119.696 449.882 115.956C449.882 112.215 452.487 107.673 455.76 105.736Z" fill="#3D3D3D"/>
<path d="M459.367 109.076C456.762 110.545 454.424 114.219 454.224 117.559C450.617 115.555 455.025 107.874 458.432 108.608C458.566 108.608 458.499 108.542 459.367 109.076Z" fill="#111111"/>
<path d="M466.981 113.484C466.915 118.961 460.97 124.906 457.764 122.635L457.964 122.769L455.76 121.5C452.354 119.563 454.959 111.547 459.367 109.076C459.848 108.742 460.393 108.51 460.967 108.395C461.542 108.28 462.134 108.285 462.707 108.408L465.445 109.944C466.18 110.278 467.115 111.748 466.981 113.484Z" fill="#E9F5FB"/>
<path d="M461.705 110.278C464.577 108.609 466.982 109.944 466.982 113.284C466.982 116.624 464.644 120.765 461.705 122.435C458.766 124.105 456.428 122.769 456.428 119.429C456.428 116.089 458.766 111.948 461.705 110.278Z" fill="#AAD9F0"/>
<path d="M466.247 113.084C464.785 114.032 463.568 115.313 462.698 116.823C461.827 118.332 461.326 120.027 461.237 121.767L460.102 121.032C459.501 120.765 458.833 119.696 459.1 117.893C459.634 114.82 462.44 111.815 464.577 112.216L466.247 113.084Z" fill="#111111"/>
<path d="M504.653 138.265C503.317 142.539 499.042 146.28 496.504 144.61C496.504 144.628 496.511 144.645 496.524 144.657C496.536 144.67 496.553 144.677 496.571 144.677L462.707 124.906C462.375 124.743 462.097 124.488 461.905 124.171C459.3 120.431 464.71 111.614 469.052 112.549C469.586 112.683 503.584 132.52 503.584 132.52C504.653 132.988 505.655 135.059 504.653 138.265Z" fill="#232323"/>
<path d="M504.653 138.265C504.3 139.448 503.734 140.557 502.983 141.538C497.038 138.065 467.783 120.965 462.172 117.893C462.687 116.741 463.387 115.681 464.243 114.754C465.044 115.154 503.985 137.664 504.653 138.265Z" fill="#3D3D3D"/>
<path d="M504.252 131.452C501.647 129.916 501.58 129.849 501.18 129.715C500.779 129.582 498.241 129.916 497.039 130.717C492.029 134.124 489.892 142.339 493.365 144.343L495.903 145.812L495.703 145.679C499.31 148.217 505.989 141.404 505.989 135.192C505.989 132.187 504.252 131.452 504.252 131.452Z" fill="#E9F5FB"/>
<path d="M500.044 131.853C503.317 129.982 505.989 131.452 505.989 135.192C505.989 138.933 503.317 143.541 500.044 145.412C496.771 147.282 494.166 145.812 494.166 142.005C494.166 138.198 496.771 133.723 500.044 131.853Z" fill="#AAD9F0"/>
<path d="M500.044 133.523C502.516 132.12 504.519 133.255 504.519 136.061C504.43 137.603 503.979 139.102 503.201 140.437C502.423 141.771 501.342 142.904 500.044 143.742C497.64 145.145 495.636 144.009 495.636 141.204C495.636 138.398 497.573 134.925 500.044 133.523Z" fill="#111111"/>
<defs>
<linearGradient id="paint0_linear" x1="57808.1" y1="16271.2" x2="57828.6" y2="16272.5" gradientUnits="userSpaceOnUse">
<stop stop-color="#ED7D88"/>
<stop offset="1" stop-color="#FFCFCD"/>
</linearGradient>
<linearGradient id="paint1_linear" x1="358503" y1="65763.6" x2="358576" y2="65763.6" gradientUnits="userSpaceOnUse">
<stop stop-color="#154336"/>
<stop offset="1" stop-color="#288067"/>
</linearGradient>
<linearGradient id="paint2_linear" x1="25781.7" y1="13436.6" x2="25790.3" y2="13437.1" gradientUnits="userSpaceOnUse">
<stop stop-color="#ED7D88"/>
<stop offset="1" stop-color="#FFCFCD"/>
</linearGradient>
<linearGradient id="paint3_linear" x1="27347.2" y1="28656.1" x2="27356.7" y2="28656.7" gradientUnits="userSpaceOnUse">
<stop stop-color="#ED7D88"/>
<stop offset="1" stop-color="#FFCFCD"/>
</linearGradient>
<linearGradient id="paint4_linear" x1="20784.3" y1="8660.76" x2="20788.6" y2="8661.02" gradientUnits="userSpaceOnUse">
<stop stop-color="#ED7D88"/>
<stop offset="1" stop-color="#FFCFCD"/>
</linearGradient>
<linearGradient id="paint5_linear" x1="4350.23" y1="302.418" x2="4350.73" y2="302.448" gradientUnits="userSpaceOnUse">
<stop stop-color="#ED7D88"/>
<stop offset="0.16" stop-color="#F08A93"/>
<stop offset="1" stop-color="#FFCFCD"/>
</linearGradient>
<linearGradient id="paint6_linear" x1="25254.7" y1="8550.58" x2="25263.9" y2="8550.58" gradientUnits="userSpaceOnUse">
<stop stop-color="#ED7D88"/>
<stop offset="0.16" stop-color="#F08A93"/>
<stop offset="1" stop-color="#FFCFCD"/>
</linearGradient>
<linearGradient id="paint7_linear" x1="-36849.3" y1="6655" x2="-36852.7" y2="6655" gradientUnits="userSpaceOnUse">
<stop stop-color="#51B6FA"/>
<stop offset="1" stop-color="#70BFE6"/>
</linearGradient>
<linearGradient id="paint8_linear" x1="-20313.8" y1="3975.42" x2="-20315.8" y2="3975.42" gradientUnits="userSpaceOnUse">
<stop stop-color="#51B6FA"/>
<stop offset="1" stop-color="#70BFE6"/>
</linearGradient>
<linearGradient id="paint9_linear" x1="-49114.2" y1="6906.39" x2="-49118.6" y2="6906.39" gradientUnits="userSpaceOnUse">
<stop stop-color="#51B6FA"/>
<stop offset="1" stop-color="#70BFE6"/>
</linearGradient>
</defs>
</svg>
